<svg id="Ebene_1" data-name="Ebene 1" xmlns="http://www.w3.org/2000/svg" viewBox="0 0 165.82 163.57"><defs><style>.cls-1{fill:#b8b8b8;}.cls-2{fill:#381d89;stroke:#f2f2f2;stroke-miterlimit:10;}.cls-3{fill:#ffff5c;}.cls-4{fill:#f2f2f2;}</style></defs><title>Kosmihead</title><path class="cls-1" d="M646.29,131.88c-.72,5.79-4.3,10.06-8,9.55s-6.11-5.62-5.39-11.4,4.3-10.06,8-9.55S647,126.1,646.29,131.88Z" transform="translate(-480.6 -42.73)"/><path class="cls-1" d="M494.11,110.83c-.72,5.79-4.3,10.06-8,9.55s-6.11-5.62-5.39-11.4,4.3-10.06,8-9.55S494.83,105,494.11,110.83Z" transform="translate(-480.6 -42.73)"/><path class="cls-1" d="M486.27,113.39c-5.26,44.74,24.58,86,66.63,92.14s80.41-25.15,85.66-69.9S614,49.64,571.93,43.5,491.52,68.65,486.27,113.39Z" transform="translate(-480.6 -42.73)"/><path class="cls-2" d="M498.63,127.85c-4.19,33.63,20.81,64.82,55.83,69.67s66.81-18.49,71-52.12-20.81-64.82-55.83-69.67S502.82,94.22,498.63,127.85Z" transform="translate(-480.6 -42.73)"/><path class="cls-3" d="M590.35,106.86c-1.41-.65.48-6.12-1.43-7.26-1-.62-2,.8-5.3,1.69-4,1.07-5-.31-6.91,1s-.84,2.75-3.49,5.91c-1.39,1.66-2.3,2-3,3.77a6.13,6.13,0,0,0-.46,3.69c.49,2.12,2.32,3.28,3.53,4,3.5,2.14,4.81.66,7.76,2.4a12.94,12.94,0,0,1,5.11,6.66c1,2.8.1,3.63,1.23,5.46,1.76,2.86,5.42,3.39,6.55,3.55,3.67.53,5.22-2.65,7.62-1.59,1.34.59,2.4,2.13,2.15,3.17-.32,1.32-2.73,1.77-4.28,2.05a26.43,26.43,0,0,1-3,.25c-2.82.36-3.63,2.49-5.78,3.83-4.15,2.61-7.27-1.42-15.3.31-.92.2-2.23.64-4.85,1.53-4.65,1.58-7,2.37-8.93,3.62-3.85,2.46-3.48,4.06-5.86,4.48-3.3.59-4.93-2.32-7.68-1.28-1.85.7-3.48,2.9-3.09,4.43.62,2.46,6,1.13,8.29,4.9,1,1.6.39,2.41,1.88,5.33a20.36,20.36,0,0,0,2.69,3.9c3.65,4.38,4.83,3.92,7,6.92,1,1.4,3,4.23,3,7.92,0,2.64-1,4.3-.39,4.8s3.38-.8,5-3.05c3.35-4.52.21-8.92,3.33-16.53a21.11,21.11,0,0,1,2.73-4.92c3-4,5-3.54,6.54-6.59,1.61-3.24,0-5.08,1.81-7.69,1.38-2,3.44-2.56,5.49-3.21a115.11,115.11,0,0,0,13.39-5.43c7.51-3.62,12.07-12.87,13.17-20.68.1-.68,1.43-11.15-4.66-20.5-1.8-2.77-4.49-6.9-8.44-7.12-3.48-.2-6.81,2.7-9.54,5.08C592.88,104.7,591.38,107.33,590.35,106.86Z" transform="translate(-480.6 -42.73)"/><path class="cls-3" d="M536.89,121.21c-4,.66-4.53,1.91-7.79,1.79-2.82-.1-3-1.06-5.43-1.13a12.67,12.67,0,0,0-9.27,4.07c-3.14,3.42-2.79,7.37-5.41,7.8-.9.15-1.19-.28-2.71-.13-.62.06-3,.37-4.2,1.71-2.2,2.57,0,9.29,4.1,11.85,1.29.8,2.41,1,2.92,2.12.77,1.74-1.1,2.86-.66,5.26.33,1.8,1.46,1.62,2.44,4.35.56,1.56.28,1.84.95,3.57a18.22,18.22,0,0,0,1.78,3.3,19.47,19.47,0,0,0,2.71,3.82c1.76,1.62,5,3.11,6.71,2.08,1.08-.64.6-1.64,1.71-4.16,1.3-2.93,2.56-2.94,3.88-5.58.9-1.8.36-1.89,1.38-6.31.87-3.74,1.33-5.65,2.74-7.65,1.07-1.51,2.21-3.12,4.26-3.81,3.83-1.28,6.24,2.22,10.22,1,1.87-.56,2.92-1.8,4.43-3.59,1.36-1.61,4.33-5.14,3.49-8.88-.21-.93-1.68-2.69-4.61-6.18-2.21-2.63-3.33-4-4-4.38C543.2,120.16,539.15,120.83,536.89,121.21Z" transform="translate(-480.6 -42.73)"/><path class="cls-3" d="M543.41,94.39a5.16,5.16,0,0,1,3.11.62c.82.54.91,1.09,2.56,3.41a10.13,10.13,0,0,0,1.55,1.94c.12.09,2.31,1.72,4.48.81a3.29,3.29,0,0,0,2.14-2.76c0-.54-.25-.58-.77-1.83-.79-1.89-.47-2.36-1-2.82-1.07-.87-2.88.2-3.33-.46s.82-1.23.67-2.2c-.23-1.53-3.36-1.23-6.11-3.71-1.73-1.56-1.41-2.51-2.8-3.06s-2.21.07-5.91,1.09c-4.58,1.27-4.47.72-5.76,1.5-2,1.23-6.06,7.14-4.64,5.28A30.18,30.18,0,0,1,531.39,95c1.81,1.62,1.36,1.87,2.11,2.2C535.94,98.31,538.21,94.54,543.41,94.39Z" transform="translate(-480.6 -42.73)"/><path class="cls-3" d="M579.4,87.83c-.35-.22.63-1.66.23-1.88s-1,.65-1.75.49-.77-1-1.54-1.22c-.6-.13-.8.34-1.75.49s-2.37-.13-2.73-.74.63-1.24.22-1.79-1.5-.52-2.21-.4a4.37,4.37,0,0,0-2.06,1.17c-.5.41-.44.47-1,1s-1,.69-1.49,1.07A3.56,3.56,0,0,0,564,87.7c-.19.88.61,1.1,2.45,3.9a5.86,5.86,0,0,0,1.77,2.07,7.66,7.66,0,0,0,1.71.78c1.38.49,1.67.28,2.52.62,1.57.63,1.29,1.61,2.57,2a5.4,5.4,0,0,0,3.45-.53c1.1-.44,1-.69,1.69-.86,1.9-.46,3.75,1,4.22.58.27-.24-.29-.78-.84-2.31-.41-1.14-.67-1.86-.3-2.14.74-.56,3.28,1.14,3.87.63.37-.32-.27-1.25-.39-1.42-1-1.49-3.08-2-3-2.15s4.27.93,4.58.36c.12-.22-.45-.76-1.57-1.86a5.66,5.66,0,0,1-.9-.95c-.58-.87-.29-1.36-.6-1.54C584.22,84.32,580,88.23,579.4,87.83Z" transform="translate(-480.6 -42.73)"/><path class="cls-4" d="M494.14,98.78a5.44,5.44,0,0,0,4.48,6.16,5.26,5.26,0,0,0,5.84-4.73A5.44,5.44,0,0,0,500,94.05,5.26,5.26,0,0,0,494.14,98.78Z" transform="translate(-480.6 -42.73)"/><path class="cls-4" d="M517,70.73c-2.37.86-12.78,4.92-15.61,14.61-.55,1.9-1.28,4.39-.16,5.57,2.85,3,17.64-2.65,18.46-12A12.36,12.36,0,0,0,517,70.73Z" transform="translate(-480.6 -42.73)"/></svg>