<?xml version="1.0" encoding="utf-8"?>
<!-- Generator: Adobe Illustrator 24.2.0, SVG Export Plug-In . SVG Version: 6.00 Build 0)  -->
<svg version="1.1" id="Layer_1" xmlns="http://www.w3.org/2000/svg" xmlns:xlink="http://www.w3.org/1999/xlink" x="0px" y="0px"
	 viewBox="0 0 716 536" style="enable-background:new 0 0 716 536;" xml:space="preserve">
<style type="text/css">
	.st0{fill-rule:evenodd;clip-rule:evenodd;fill:#FEFEFE;}
	.st1{enable-background:new    ;}
	.st2{fill:#FFFFFF;}
	.st3{filter:url(#Adobe_OpacityMaskFilter);}
	.st4{fill-rule:evenodd;clip-rule:evenodd;fill:#FFFFFF;}
	.st5{mask:url(#mask-4_20_);fill-rule:evenodd;clip-rule:evenodd;fill:#FEFEFE;}
	.st6{filter:url(#Adobe_OpacityMaskFilter_1_);}
	.st7{mask:url(#mask-4_19_);fill-rule:evenodd;clip-rule:evenodd;fill:#FEFEFE;}
	.st8{filter:url(#Adobe_OpacityMaskFilter_2_);}
	.st9{mask:url(#mask-4_18_);fill-rule:evenodd;clip-rule:evenodd;fill:#FEFEFE;}
	.st10{filter:url(#Adobe_OpacityMaskFilter_3_);}
	.st11{mask:url(#mask-4_17_);fill-rule:evenodd;clip-rule:evenodd;fill:#FEFEFE;}
	.st12{filter:url(#Adobe_OpacityMaskFilter_4_);}
	.st13{mask:url(#mask-4_16_);fill-rule:evenodd;clip-rule:evenodd;fill:#FEFEFE;}
	.st14{filter:url(#Adobe_OpacityMaskFilter_5_);}
	.st15{mask:url(#mask-4_15_);fill-rule:evenodd;clip-rule:evenodd;fill:#FEFEFE;}
	.st16{filter:url(#Adobe_OpacityMaskFilter_6_);}
	.st17{mask:url(#mask-4_14_);fill-rule:evenodd;clip-rule:evenodd;fill:#FEFEFE;}
	.st18{filter:url(#Adobe_OpacityMaskFilter_7_);}
	.st19{mask:url(#mask-4_13_);fill-rule:evenodd;clip-rule:evenodd;fill:#FEFEFE;}
	.st20{filter:url(#Adobe_OpacityMaskFilter_8_);}
	.st21{mask:url(#mask-4_12_);fill-rule:evenodd;clip-rule:evenodd;fill:#FEFEFE;}
	.st22{filter:url(#Adobe_OpacityMaskFilter_9_);}
	.st23{mask:url(#mask-4_11_);fill-rule:evenodd;clip-rule:evenodd;fill:#FEFEFE;}
	.st24{fill-rule:evenodd;clip-rule:evenodd;fill:#231F20;}
</style>
<polygon class="st0" points="100.9,82.8 100.9,47 20.6,47 20.6,272.9 100.9,272.9 100.9,237.1 56.3,237.1 56.3,82.8 "/>
<polygon class="st0" points="605.8,82.8 605.8,47 686.2,47 686.2,272.9 605.8,272.9 605.8,237.1 650.4,237.1 650.4,82.8 "/>
<g class="st1">
	<path class="st2" d="M275.3,514.4c0.4-0.3,0.9-0.5,1.5-0.7c0.6-0.2,1.2-0.3,1.9-0.3c1.1,0,1.9,0.3,2.6,0.8c0.7,0.5,1,1.3,1,2.4
		c0,0.7-0.2,1.3-0.5,1.8s-1,1-2,1.3v0.1c1.2,0.2,2,0.6,2.4,1.2s0.6,1.3,0.6,2.1c0,1.2-0.4,2.1-1.1,2.8c-0.8,0.7-1.8,1-3.1,1
		c-1.2,0-2.2-0.3-2.8-0.8c-0.6-0.5-1-1.2-1.2-2l1.1-0.4c0.2,0.5,0.5,1,0.9,1.4c0.4,0.4,1.1,0.6,1.9,0.6c1.1,0,1.8-0.3,2.1-0.8
		c0.4-0.5,0.5-1.2,0.5-1.8c0-0.8-0.3-1.4-0.8-1.8c-0.6-0.4-1.5-0.7-2.9-0.7v-1.1c1.3-0.1,2.1-0.4,2.6-0.9c0.5-0.5,0.7-1.1,0.7-1.6
		c0-0.7-0.2-1.2-0.6-1.5s-1-0.6-1.8-0.6c-0.7,0-1.3,0.2-1.9,0.5l-0.4,1.6l-1.2-0.1L275.3,514.4z"/>
	<path class="st2" d="M294.4,518.8c0,1.7-0.4,3-1.3,3.9c-0.8,1-2,1.5-3.6,1.5c-1.6,0-2.8-0.5-3.6-1.5s-1.2-2.3-1.2-3.9
		c0-1.6,0.4-2.9,1.2-3.9c0.8-1,2-1.6,3.6-1.6c1.6,0,2.8,0.5,3.6,1.6S294.4,517.3,294.4,518.8z M292.8,518.8c0-1.3-0.3-2.2-0.8-3
		c-0.5-0.7-1.4-1.1-2.5-1.1c-1.1,0-1.9,0.4-2.5,1.1c-0.5,0.7-0.8,1.7-0.8,3s0.3,2.3,0.8,3c0.5,0.7,1.4,1.1,2.4,1.1
		C291.7,522.9,292.8,521.5,292.8,518.8z"/>
	<path class="st2" d="M310.7,515c0,1.4-0.4,2.4-1.2,3.1c-0.8,0.7-1.9,1.1-3.2,1.1h-2.5v3.6h2.2v1.3h-5.3v-1.3h1.6v-10.4h-1.6V511
		h5.5c1.6,0,2.8,0.4,3.5,1.2C310.4,513,310.7,513.9,310.7,515z M309.2,515c0-0.8-0.2-1.5-0.7-2c-0.5-0.5-1.3-0.7-2.3-0.7h-2.3v5.6
		h2.4C308.2,517.9,309.2,516.9,309.2,515z"/>
	<path class="st2" d="M323.3,524h-2.6l-2.8-5.4h-2.8v4.2h1.7v1.3H312v-1.3h1.6v-10.4H312V511h5.6c1.6,0,2.8,0.3,3.5,1s1,1.6,1,2.6
		c0,0.8-0.2,1.6-0.7,2.2s-1.2,1.1-2.1,1.4l2.3,4.4h1.6V524z M320.6,514.7c0-0.9-0.2-1.5-0.7-1.9c-0.5-0.4-1.3-0.6-2.4-0.6h-2.3v5.1
		h2.4c1.1,0,1.9-0.2,2.4-0.7S320.6,515.6,320.6,514.7z"/>
	<path class="st2" d="M337.2,517.5c0,1.2-0.3,2.3-0.8,3.4c-0.5,1-1.3,1.8-2.3,2.4c-1,0.6-2.1,0.9-3.4,0.9c-2,0-3.5-0.7-4.7-2
		c-1.2-1.3-1.8-2.9-1.8-4.7c0-1.9,0.6-3.5,1.8-4.8s2.8-2,4.7-2c1.9,0,3.5,0.7,4.7,2S337.2,515.6,337.2,517.5z M335.6,517.5
		c0-1.6-0.4-2.8-1.3-3.9c-0.9-1-2.1-1.5-3.6-1.5c-1.5,0-2.8,0.5-3.6,1.6c-0.9,1-1.3,2.3-1.3,3.8c0,1.5,0.4,2.7,1.3,3.8
		c0.9,1.1,2.1,1.6,3.7,1.6c1.5,0,2.7-0.5,3.6-1.5S335.6,519,335.6,517.5z"/>
	<path class="st2" d="M351,517.5c0,1.9-0.6,3.5-1.8,4.7c-1.2,1.2-2.8,1.8-4.8,1.8h-5.9v-1.3h1.6v-10.5h-1.6V511h5.8
		c2.1,0,3.8,0.6,4.9,1.8S351,515.6,351,517.5z M349.4,517.5c0-1.6-0.4-2.8-1.3-3.8c-0.9-1-2.1-1.4-3.8-1.4h-2.7v10.5h2.7
		c1.7,0,2.9-0.5,3.8-1.4C349,520.4,349.4,519.1,349.4,517.5z"/>
	<path class="st2" d="M365.2,512.3H364v6.4c0,0.9-0.2,1.8-0.5,2.6c-0.3,0.8-0.8,1.5-1.6,2.1s-1.8,0.8-3.1,0.8c-1.9,0-3.3-0.5-4-1.6
		s-1.1-2.3-1.1-3.7v-6.6h-1.3V511h4.6v1.3h-1.8v6.6c0,1.3,0.3,2.3,0.9,3s1.5,1.1,2.8,1.1c2.5,0,3.7-1.4,3.7-4.2v-6.4h-1.9V511h4.5
		V512.3z"/>
	<path class="st2" d="M377.3,523c-1,0.8-2.5,1.2-4.3,1.2c-1.9,0-3.4-0.6-4.6-1.9c-1.2-1.3-1.8-2.8-1.8-4.7c0-1.2,0.3-2.3,0.8-3.3
		c0.5-1,1.2-1.9,2.1-2.5s2-0.9,3.3-0.9c1.1,0,2,0.1,2.7,0.4c0.7,0.3,1.4,0.6,1.9,1.1l0.4,2.5l-1.3,0.1l-0.4-1.9
		c-0.4-0.3-0.9-0.5-1.4-0.7c-0.5-0.2-1.1-0.2-1.8-0.2c-1.4,0-2.6,0.5-3.5,1.5c-0.9,1-1.3,2.3-1.3,3.9c0,1.6,0.5,2.9,1.4,3.9
		c0.9,1,2.1,1.5,3.7,1.5c1.1,0,2.1-0.2,2.9-0.6l0.4-1.9l1.2,0.1L377.3,523z"/>
	<path class="st2" d="M390.7,515l-1.3,0.1l-0.4-2.8h-3.4v10.4h2.3v1.3h-6v-1.3h2.2v-10.4h-3.4l-0.4,2.8l-1.3-0.1l0.4-4h10.8
		L390.7,515z"/>
	<path class="st2" d="M400.9,520.4c0,1.3-0.4,2.2-1.3,2.9s-2,1-3.3,1c-1.8,0-3.2-0.4-4.2-1.1l0.3-2.6l1.2,0.1l-0.1,1.6
		c0.4,0.2,0.9,0.4,1.3,0.5c0.4,0.1,0.9,0.1,1.4,0.1c0.9,0,1.6-0.2,2.2-0.5c0.6-0.4,0.9-1,0.9-1.9c0-1-0.3-1.6-1-1.9
		c-0.7-0.3-1.4-0.5-2.2-0.7c-0.6-0.1-1.2-0.3-1.8-0.5s-1.1-0.5-1.5-1c-0.4-0.4-0.6-1.1-0.6-1.9c0-1.2,0.4-2.1,1.2-2.7
		c0.8-0.6,1.8-0.9,2.9-0.9c0.7,0,1.4,0.1,2.2,0.3c0.7,0.2,1.3,0.5,1.7,0.8l0.1,2.6l-1.2,0.1l-0.2-1.9c-0.4-0.2-0.8-0.4-1.3-0.4
		c-0.4-0.1-0.8-0.1-1.2-0.1c-0.8,0-1.5,0.2-2,0.6c-0.5,0.4-0.8,0.9-0.8,1.6c0,0.8,0.3,1.4,0.9,1.6s1.3,0.5,2,0.7
		c0.6,0.1,1.2,0.3,1.9,0.5s1.2,0.6,1.7,1.1C400.7,518.6,400.9,519.4,400.9,520.4z"/>
	<path class="st2" d="M402.1,526l1-4.3h1.4l-1.1,4.3H402.1z"/>
	<path class="st2" d="M421.7,523c-1,0.8-2.5,1.2-4.3,1.2c-1.9,0-3.4-0.6-4.6-1.9c-1.2-1.3-1.8-2.8-1.8-4.7c0-1.2,0.3-2.3,0.8-3.3
		c0.5-1,1.2-1.9,2.1-2.5c0.9-0.6,2-0.9,3.3-0.9c1.1,0,2,0.1,2.7,0.4c0.7,0.3,1.4,0.6,1.9,1.1l0.4,2.5l-1.3,0.1l-0.4-1.9
		c-0.4-0.3-0.9-0.5-1.4-0.7s-1.1-0.2-1.8-0.2c-1.4,0-2.6,0.5-3.5,1.5c-0.9,1-1.3,2.3-1.3,3.9c0,1.6,0.5,2.9,1.4,3.9
		c0.9,1,2.1,1.5,3.7,1.5c1.1,0,2.1-0.2,2.9-0.6l0.4-1.9l1.2,0.1L421.7,523z"/>
	<path class="st2" d="M436.9,517.5c0,1.2-0.3,2.3-0.8,3.4c-0.5,1-1.3,1.8-2.3,2.4c-1,0.6-2.1,0.9-3.4,0.9c-2,0-3.5-0.7-4.7-2
		c-1.2-1.3-1.8-2.9-1.8-4.7c0-1.9,0.6-3.5,1.8-4.8c1.2-1.3,2.8-2,4.7-2c1.9,0,3.5,0.7,4.7,2C436.3,514.1,436.9,515.6,436.9,517.5z
		 M435.3,517.5c0-1.6-0.4-2.8-1.3-3.9c-0.9-1-2.1-1.5-3.6-1.5c-1.5,0-2.8,0.5-3.6,1.6s-1.3,2.3-1.3,3.8c0,1.5,0.4,2.7,1.3,3.8
		s2.1,1.6,3.7,1.6c1.5,0,2.7-0.5,3.6-1.5C434.9,520.3,435.3,519,435.3,517.5z"/>
	<path class="st2" d="M454.2,512.3h-1.7v10.4h1.6v1.3h-4.6v-1.3h1.5v-8.3H451l-4.4,8.9h-0.8l-4.5-9h-0.1v8.3h1.6v1.3h-4.6v-1.3h1.6
		v-10.4h-1.7V511h3l5.1,10.2h0.1l4.9-10.2h3V512.3z"/>
	<path class="st2" d="M465.9,515c0,1.4-0.4,2.4-1.2,3.1c-0.8,0.7-1.9,1.1-3.2,1.1H459v3.6h2.2v1.3h-5.3v-1.3h1.6v-10.4h-1.6V511h5.5
		c1.6,0,2.8,0.4,3.5,1.2C465.6,513,465.9,513.9,465.9,515z M464.4,515c0-0.8-0.2-1.5-0.7-2c-0.5-0.5-1.3-0.7-2.3-0.7H459v5.6h2.4
		C463.4,517.9,464.4,516.9,464.4,515z"/>
	<path class="st2" d="M478.6,524H474v-1.3h1.7l-0.9-2.5h-5.6l-1,2.5h1.9v1.3h-4.6v-1.3h1.2l4.3-10.4h-2.1V511h3.7l4.7,11.7h1.3V524z
		 M474.4,519.1l-2.2-6H472l-2.3,6H474.4z"/>
	<path class="st2" d="M492.5,512.3h-1.6V524H490l-7.5-10.2h-0.1v9h2.1v1.3h-5v-1.3h1.5v-10.4h-1.7V511h2.8l7.4,10h0.1v-8.7h-2V511h5
		V512.3z"/>
	<path class="st2" d="M498.8,524h-4.7v-1.3h1.6v-10.4h-1.6V511h4.7v1.3h-1.6v10.4h1.6V524z"/>
	<path class="st2" d="M510.2,524h-9.7v-1.3h1.6v-10.4h-1.6V511h9.5l0.4,3.7l-1.3,0.1l-0.4-2.5h-5.1v4.5h6.1v1.3h-6.1v4.7h5.3
		l0.4-2.5l1.3,0.1L510.2,524z"/>
	<path class="st2" d="M521.2,520.4c0,1.3-0.4,2.2-1.3,2.9s-2,1-3.3,1c-1.8,0-3.2-0.4-4.2-1.1l0.3-2.6l1.2,0.1l-0.1,1.6
		c0.4,0.2,0.9,0.4,1.3,0.5c0.4,0.1,0.9,0.1,1.4,0.1c0.9,0,1.6-0.2,2.2-0.5c0.6-0.4,0.9-1,0.9-1.9c0-1-0.3-1.6-1-1.9
		c-0.7-0.3-1.4-0.5-2.2-0.7c-0.6-0.1-1.2-0.3-1.8-0.5s-1.1-0.5-1.5-1c-0.4-0.4-0.6-1.1-0.6-1.9c0-1.2,0.4-2.1,1.2-2.7
		c0.8-0.6,1.8-0.9,2.9-0.9c0.7,0,1.4,0.1,2.2,0.3c0.7,0.2,1.3,0.5,1.7,0.8l0.1,2.6l-1.2,0.1l-0.2-1.9c-0.4-0.2-0.8-0.4-1.3-0.4
		c-0.4-0.1-0.8-0.1-1.2-0.1c-0.8,0-1.5,0.2-2,0.6c-0.5,0.4-0.8,0.9-0.8,1.6c0,0.8,0.3,1.4,0.9,1.6s1.3,0.5,2,0.7
		c0.6,0.1,1.2,0.3,1.9,0.5s1.2,0.6,1.7,1.1C521,518.6,521.2,519.4,521.2,520.4z"/>
	<path class="st2" d="M522.4,526l1-4.3h1.4l-1.1,4.3H522.4z"/>
	<path class="st2" d="M541.3,515c0,1.4-0.4,2.4-1.2,3.1c-0.8,0.7-1.9,1.1-3.2,1.1h-2.5v3.6h2.2v1.3h-5.3v-1.3h1.6v-10.4h-1.6V511
		h5.5c1.6,0,2.8,0.4,3.5,1.2C541,513,541.3,513.9,541.3,515z M539.8,515c0-0.8-0.2-1.5-0.7-2c-0.5-0.5-1.3-0.7-2.3-0.7h-2.3v5.6h2.4
		C538.8,517.9,539.8,516.9,539.8,515z"/>
	<path class="st2" d="M553.9,524h-2.6l-2.8-5.4h-2.8v4.2h1.7v1.3h-4.9v-1.3h1.6v-10.4h-1.6V511h5.6c1.6,0,2.8,0.3,3.5,1s1,1.6,1,2.6
		c0,0.8-0.2,1.6-0.7,2.2s-1.2,1.1-2.1,1.4l2.3,4.4h1.6V524z M551.2,514.7c0-0.9-0.2-1.5-0.7-1.9s-1.3-0.6-2.4-0.6h-2.3v5.1h2.4
		c1.1,0,1.9-0.2,2.4-0.7C551,516.2,551.2,515.6,551.2,514.7z"/>
	<path class="st2" d="M567.8,517.5c0,1.2-0.3,2.3-0.8,3.4c-0.5,1-1.3,1.8-2.3,2.4s-2.1,0.9-3.4,0.9c-2,0-3.5-0.7-4.7-2
		c-1.2-1.3-1.8-2.9-1.8-4.7c0-1.9,0.6-3.5,1.8-4.8c1.2-1.3,2.8-2,4.7-2c1.9,0,3.5,0.7,4.7,2C567.2,514.1,567.8,515.6,567.8,517.5z
		 M566.2,517.5c0-1.6-0.4-2.8-1.3-3.9c-0.9-1-2.1-1.5-3.6-1.5c-1.5,0-2.8,0.5-3.6,1.6c-0.9,1-1.3,2.3-1.3,3.8c0,1.5,0.4,2.7,1.3,3.8
		c0.9,1.1,2.1,1.6,3.7,1.6c1.5,0,2.7-0.5,3.6-1.5C565.8,520.3,566.2,519,566.2,517.5z"/>
	<path class="st2" d="M576.6,512.3h-1.4v8.4c0,1.2-0.3,2.1-0.9,2.6s-1.4,0.9-2.5,0.9c-0.9,0-1.5-0.2-2.1-0.5
		c-0.5-0.4-0.9-0.8-1.2-1.4l1.1-0.8c0.3,0.5,0.6,0.9,0.9,1.1c0.3,0.2,0.7,0.3,1.1,0.3c0.7,0,1.2-0.2,1.5-0.6
		c0.3-0.4,0.5-0.9,0.5-1.6v-8.4h-2.6V511h5.5V512.3z"/>
	<path class="st2" d="M587.9,524h-9.7v-1.3h1.6v-10.4h-1.6V511h9.5l0.4,3.7l-1.3,0.1l-0.4-2.5h-5.1v4.5h6.1v1.3h-6.1v4.7h5.3
		l0.4-2.5l1.3,0.1L587.9,524z"/>
	<path class="st2" d="M600.7,523c-1,0.8-2.5,1.2-4.3,1.2c-1.9,0-3.4-0.6-4.6-1.9c-1.2-1.3-1.8-2.8-1.8-4.7c0-1.2,0.3-2.3,0.8-3.3
		c0.5-1,1.2-1.9,2.1-2.5s2-0.9,3.3-0.9c1.1,0,2,0.1,2.7,0.4c0.7,0.3,1.4,0.6,1.9,1.1l0.4,2.5l-1.3,0.1l-0.4-1.9
		c-0.4-0.3-0.9-0.5-1.4-0.7c-0.5-0.2-1.1-0.2-1.8-0.2c-1.4,0-2.6,0.5-3.5,1.5c-0.9,1-1.3,2.3-1.3,3.9c0,1.6,0.5,2.9,1.4,3.9
		c0.9,1,2.1,1.5,3.7,1.5c1.1,0,2.1-0.2,2.9-0.6l0.4-1.9l1.2,0.1L600.7,523z"/>
	<path class="st2" d="M614.1,515l-1.3,0.1l-0.4-2.8H609v10.4h2.3v1.3h-6v-1.3h2.2v-10.4h-3.4l-0.4,2.8l-1.3-0.1l0.4-4h10.8
		L614.1,515z"/>
	<path class="st2" d="M624.3,520.4c0,1.3-0.4,2.2-1.3,2.9s-2,1-3.3,1c-1.8,0-3.2-0.4-4.2-1.1l0.3-2.6l1.2,0.1l-0.1,1.6
		c0.4,0.2,0.9,0.4,1.3,0.5c0.4,0.1,0.9,0.1,1.4,0.1c0.9,0,1.6-0.2,2.2-0.5c0.6-0.4,0.9-1,0.9-1.9c0-1-0.3-1.6-1-1.9
		c-0.7-0.3-1.4-0.5-2.2-0.7c-0.6-0.1-1.2-0.3-1.8-0.5s-1.1-0.5-1.5-1c-0.4-0.4-0.6-1.1-0.6-1.9c0-1.2,0.4-2.1,1.2-2.7
		c0.8-0.6,1.8-0.9,2.9-0.9c0.7,0,1.4,0.1,2.2,0.3c0.7,0.2,1.3,0.5,1.7,0.8l0.1,2.6l-1.2,0.1l-0.2-1.9c-0.4-0.2-0.8-0.4-1.3-0.4
		c-0.4-0.1-0.8-0.1-1.2-0.1c-0.8,0-1.5,0.2-2,0.6c-0.5,0.4-0.8,0.9-0.8,1.6c0,0.8,0.3,1.4,0.9,1.6s1.3,0.5,2,0.7
		c0.6,0.1,1.2,0.3,1.9,0.5s1.2,0.6,1.7,1.1C624,518.6,624.3,519.4,624.3,520.4z"/>
</g>
<g id="Fix-The-Internet-Art" transform="translate(144.000000, 0.000000)">
	<polygon id="Fill-1" class="st0" points="39.1,227.1 39.1,212 3.1,212 3.1,227.1 12.3,227.1 12.3,282.9 3.1,282.9 3.1,298 
		39.1,298 39.1,282.9 29.9,282.9 29.9,227.1 	"/>
	<polygon id="Fill-2" class="st0" points="76.2,243.8 122.8,299 132.8,298.9 132.8,227.2 142.1,227.2 142.1,212 103.6,212 
		103.6,227.2 116.1,227.2 116.1,263.6 115.6,263.6 71.8,212 48.1,212 48.1,227.2 59,227.2 59,283.6 49.6,283.6 49.6,298.9 
		87.7,298.9 87.7,283.6 75.6,283.6 75.6,243.8 	"/>
	<polygon id="Fill-3" class="st0" points="211.3,227.1 214,242.4 229.1,241.1 226.5,212 150.8,212 148.1,241.1 163.3,242.4 
		166,227.1 179.7,227.1 179.7,282.9 166.4,282.9 166.4,298 211.7,298 211.7,282.9 197.6,282.9 197.6,227.1 	"/>
	<polygon id="Fill-4" class="st0" points="288.4,282.9 264.1,282.9 264.1,262.3 300.3,262.3 300.3,247.3 264.1,247.3 264.1,227.1 
		287.6,227.1 290.3,238.5 305.4,237.1 302.7,212 237.1,212 237.1,227.1 246.4,227.1 246.4,282.9 237.1,282.9 237.1,298 303.5,298 
		306.1,272.9 291.1,271.5 	"/>
	<g id="Group-18" transform="translate(0.143426, 0.000000)">
		<path id="Fill-5" class="st0" d="M351,250.9h-8.5v-24.2h8.8c13,0,17.4,2.8,17.4,11.4C368.7,246.4,364.6,250.9,351,250.9L351,250.9
			z M371.3,261.3c9.8-3.8,16.5-11.8,16.5-23.5c0-17.4-12-26.2-33.3-26.2h-39v15.1h9.3v56h-9.3v15.1h36.4v-15.1h-9.3V265h11.7
			l17.1,32.9h22v-15.1H383L371.3,261.3z"/>
		<g id="Clip-8">
		</g>
		<defs>
			<filter id="Adobe_OpacityMaskFilter" filterUnits="userSpaceOnUse" x="399" y="259.7" width="31.7" height="14.3">
				<feColorMatrix  type="matrix" values="1 0 0 0 0  0 1 0 0 0  0 0 1 0 0  0 0 0 1 0"/>
			</filter>
		</defs>
		<mask maskUnits="userSpaceOnUse" x="399" y="259.7" width="31.7" height="14.3" id="mask-4_20_">
			<g class="st3">
				<polygon id="path-3_20_" class="st4" points="0,408 430.7,408 430.7,0.5 0,0.5 				"/>
			</g>
		</mask>
		<polygon id="Fill-7" class="st5" points="399,274 430.7,274 430.7,259.7 399,259.7 		"/>
		<defs>
			<filter id="Adobe_OpacityMaskFilter_1_" filterUnits="userSpaceOnUse" x="2.2" y="0.5" width="61.4" height="78.5">
				<feColorMatrix  type="matrix" values="1 0 0 0 0  0 1 0 0 0  0 0 1 0 0  0 0 0 1 0"/>
			</filter>
		</defs>
		<mask maskUnits="userSpaceOnUse" x="2.2" y="0.5" width="61.4" height="78.5" id="mask-4_19_">
			<g class="st6">
				<polygon id="path-3_19_" class="st4" points="0,408 430.7,408 430.7,0.5 0,0.5 				"/>
			</g>
		</mask>
		<polygon id="Fill-9" class="st7" points="39.6,65.2 26.8,65.2 26.8,49.9 59.8,49.9 59.8,36.2 26.8,36.2 26.8,14.2 47.4,14.2 
			49.8,25.8 63.5,24.6 61.1,0.5 2.2,0.5 2.2,14.2 10.6,14.2 10.6,65.2 2.2,65.2 2.2,79 39.6,79 		"/>
		<defs>
			<filter id="Adobe_OpacityMaskFilter_2_" filterUnits="userSpaceOnUse" x="70.7" y="0.5" width="33.1" height="78.5">
				<feColorMatrix  type="matrix" values="1 0 0 0 0  0 1 0 0 0  0 0 1 0 0  0 0 0 1 0"/>
			</filter>
		</defs>
		<mask maskUnits="userSpaceOnUse" x="70.7" y="0.5" width="33.1" height="78.5" id="mask-4_18_">
			<g class="st8">
				<polygon id="path-3_18_" class="st4" points="0,408 430.7,408 430.7,0.5 0,0.5 				"/>
			</g>
		</mask>
		<polygon id="Fill-10" class="st9" points="103.8,65.2 95.3,65.2 95.3,14.2 103.8,14.2 103.8,0.5 70.7,0.5 70.7,14.2 79.1,14.2 
			79.1,65.2 70.7,65.2 70.7,79 103.8,79 		"/>
		<defs>
			<filter id="Adobe_OpacityMaskFilter_3_" filterUnits="userSpaceOnUse" x="109.2" y="0.5" width="78.8" height="78.5">
				<feColorMatrix  type="matrix" values="1 0 0 0 0  0 1 0 0 0  0 0 1 0 0  0 0 0 1 0"/>
			</filter>
		</defs>
		<mask maskUnits="userSpaceOnUse" x="109.2" y="0.5" width="78.8" height="78.5" id="mask-4_17_">
			<g class="st10">
				<polygon id="path-3_17_" class="st4" points="0,408 430.7,408 430.7,0.5 0,0.5 				"/>
			</g>
		</mask>
		<polygon id="Fill-11" class="st11" points="142.1,65.2 135.6,65.2 148,49.3 161.5,65.2 156,65.2 156,79 188,79 188,65.2 181,65.2 
			157.9,38.5 178.9,14.2 186.2,14.2 186.2,0.5 155.3,0.5 155.3,14.2 160.9,14.2 149.6,28.4 137.3,14.2 142.6,14.2 142.6,0.5 
			111,0.5 111,14.2 118.3,14.2 139.7,38.8 117.7,65.2 109.2,65.2 109.2,79 142.1,79 		"/>
		<defs>
			<filter id="Adobe_OpacityMaskFilter_4_" filterUnits="userSpaceOnUse" x="0" y="109.5" width="73.5" height="78.5">
				<feColorMatrix  type="matrix" values="1 0 0 0 0  0 1 0 0 0  0 0 1 0 0  0 0 0 1 0"/>
			</filter>
		</defs>
		<mask maskUnits="userSpaceOnUse" x="0" y="109.5" width="73.5" height="78.5" id="mask-4_16_">
			<g class="st12">
				<polygon id="path-3_16_" class="st4" points="0,408 430.7,408 430.7,0.5 0,0.5 				"/>
			</g>
		</mask>
		<polygon id="Fill-12" class="st13" points="16.2,123.3 28.6,123.3 28.6,174.2 16.6,174.2 16.6,188 57.6,188 57.6,174.2 
			44.8,174.2 44.8,123.3 57.3,123.3 59.7,137.3 73.5,136.1 71,109.5 2.4,109.5 0,136.1 13.8,137.3 		"/>
		<defs>
			<filter id="Adobe_OpacityMaskFilter_5_" filterUnits="userSpaceOnUse" x="80.8" y="109.5" width="82.5" height="78.5">
				<feColorMatrix  type="matrix" values="1 0 0 0 0  0 1 0 0 0  0 0 1 0 0  0 0 0 1 0"/>
			</filter>
		</defs>
		<mask maskUnits="userSpaceOnUse" x="80.8" y="109.5" width="82.5" height="78.5" id="mask-4_15_">
			<g class="st14">
				<polygon id="path-3_15_" class="st4" points="0,408 430.7,408 430.7,0.5 0,0.5 				"/>
			</g>
		</mask>
		<polygon id="Fill-13" class="st15" points="163.4,174.2 154.9,174.2 154.9,123.3 163.4,123.3 163.4,109.5 130.2,109.5 
			130.2,123.3 138.7,123.3 138.7,141.4 105.5,141.4 105.5,123.3 113.9,123.3 113.9,109.5 80.8,109.5 80.8,123.3 89.3,123.3 
			89.3,174.2 80.8,174.2 80.8,188 113.9,188 113.9,174.2 105.5,174.2 105.5,155 138.7,155 138.7,174.2 130.2,174.2 130.2,188 
			163.4,188 		"/>
		<defs>
			<filter id="Adobe_OpacityMaskFilter_6_" filterUnits="userSpaceOnUse" x="172.8" y="109.5" width="63.1" height="78.5">
				<feColorMatrix  type="matrix" values="1 0 0 0 0  0 1 0 0 0  0 0 1 0 0  0 0 0 1 0"/>
			</filter>
		</defs>
		<mask maskUnits="userSpaceOnUse" x="172.8" y="109.5" width="63.1" height="78.5" id="mask-4_14_">
			<g class="st16">
				<polygon id="path-3_14_" class="st4" points="0,408 430.7,408 430.7,0.5 0,0.5 				"/>
			</g>
		</mask>
		<polygon id="Fill-14" class="st17" points="172.8,123.3 181.2,123.3 181.2,174.2 172.8,174.2 172.8,188 233.4,188 235.8,165.1 
			222.1,163.8 219.7,174.2 197.4,174.2 197.4,155.4 230.5,155.4 230.5,141.7 197.4,141.7 197.4,123.3 218.9,123.3 221.3,133.6 
			235.1,132.4 232.7,109.5 172.8,109.5 		"/>
		<defs>
			<filter id="Adobe_OpacityMaskFilter_7_" filterUnits="userSpaceOnUse" x="1.3" y="321.6" width="93.5" height="86.4">
				<feColorMatrix  type="matrix" values="1 0 0 0 0  0 1 0 0 0  0 0 1 0 0  0 0 0 1 0"/>
			</filter>
		</defs>
		<mask maskUnits="userSpaceOnUse" x="1.3" y="321.6" width="93.5" height="86.4" id="mask-4_13_">
			<g class="st18">
				<polygon id="path-3_13_" class="st4" points="0,408 430.7,408 430.7,0.5 0,0.5 				"/>
			</g>
		</mask>
		<polygon id="Fill-15" class="st19" points="2.8,392.7 2.8,407.9 40.6,407.9 40.6,392.7 28.7,392.7 28.7,353.2 29.2,353.2 
			75.5,408 85.5,407.9 85.5,336.7 94.8,336.7 94.8,321.6 56.4,321.6 56.4,336.7 68.9,336.7 68.9,372.8 68.4,372.8 24.8,321.6 
			1.3,321.6 1.3,336.7 12.1,336.7 12.1,392.7 		"/>
		<defs>
			<filter id="Adobe_OpacityMaskFilter_8_" filterUnits="userSpaceOnUse" x="103.5" y="321.6" width="69.3" height="86.3">
				<feColorMatrix  type="matrix" values="1 0 0 0 0  0 1 0 0 0  0 0 1 0 0  0 0 0 1 0"/>
			</filter>
		</defs>
		<mask maskUnits="userSpaceOnUse" x="103.5" y="321.6" width="69.3" height="86.3" id="mask-4_12_">
			<g class="st20">
				<polygon id="path-3_12_" class="st4" points="0,408 430.7,408 430.7,0.5 0,0.5 				"/>
			</g>
		</mask>
		<polygon id="Fill-16" class="st21" points="155.1,392.7 130.6,392.7 130.6,372 167,372 167,357 130.6,357 130.6,336.7 
			154.3,336.7 156.9,348.1 172.1,346.8 169.4,321.6 103.5,321.6 103.5,336.7 112.8,336.7 112.8,392.7 103.5,392.7 103.5,407.9 
			170.2,407.9 172.9,382.6 157.7,381.3 		"/>
		<defs>
			<filter id="Adobe_OpacityMaskFilter_9_" filterUnits="userSpaceOnUse" x="179.9" y="321.6" width="80.7" height="86.3">
				<feColorMatrix  type="matrix" values="1 0 0 0 0  0 1 0 0 0  0 0 1 0 0  0 0 0 1 0"/>
			</filter>
		</defs>
		<mask maskUnits="userSpaceOnUse" x="179.9" y="321.6" width="80.7" height="86.3" id="mask-4_11_">
			<g class="st22">
				<polygon id="path-3_11_" class="st4" points="0,408 430.7,408 430.7,0.5 0,0.5 				"/>
			</g>
		</mask>
		<polygon id="Fill-17" class="st23" points="182.5,321.6 179.9,350.8 195,352.1 197.7,336.7 211.4,336.7 211.4,392.7 198.1,392.7 
			198.1,407.9 243.2,407.9 243.2,392.7 229.1,392.7 229.1,336.7 242.8,336.7 245.5,352.1 260.6,350.8 258,321.6 		"/>
	</g>
</g>
<circle id="Oval" class="st4" cx="257" cy="518" r="8"/>
<g id="Showcase" transform="translate(419.000000, 549.000000)">
	<polygon id="Fill-1_2_" class="st0" points="-171,-65 155,-65 155,-126 -171,-126 	"/>
	<g id="Group-18_1_" transform="translate(24.000000, 13.000000)">
		<path id="Fill-2_2_" class="st24" d="M-160.3-91.8c-4.1,0-8.2-1.1-10.3-2.7l0.7-6.6l3.5,0.3l-0.1,3.9c2.1,1.1,4,1.3,6,1.3
			c3.9,0,7.1-1.2,7.1-5.2c0-4.4-3.6-5.1-7.4-5.9c-4.5-0.9-9.6-2.1-9.6-8.4c0-6.2,4.8-8.9,10.3-8.9c3.6,0,7.6,1.2,9.6,2.8l0.3,6.4
			l-3.5,0.3l-0.5-4.4c-1.9-1.1-3.8-1.3-5.6-1.3c-3.6,0-6,1.5-6,4.6c0,3.5,3.2,4.3,6.5,5.1c4.1,0.9,10.5,1.9,10.5,9.3
			C-148.8-95.1-153.5-91.8-160.3-91.8"/>
		<path id="Fill-4_1_" class="st24" d="M-131.4-92.3v-3.3h3.5v-9.3c0-4.4-1.9-6-4.7-6c-3.5,0-5.7,2.7-5.9,5.8v9.5h3.5v3.3h-11.1
			v-3.3h3.5V-122h-3.5v-3.3h7.6v15.3c1.4-2.5,4-4.1,7.3-4.1c4.2,0,7.4,2.4,7.4,7.9v10.7h3.5v3.3H-131.4z"/>
		<path id="Fill-6" class="st24" d="M-107.4-110.8c-4.1,0-6.4,3.2-6.4,7.8c0,4.4,2.2,7.8,6.4,7.8c4.2,0,6.5-3.3,6.5-7.9
			C-100.9-107.8-103.4-110.8-107.4-110.8 M-107.6-91.8c-6.5,0-10.6-4.4-10.6-11c0-6.3,3.7-11.4,10.9-11.4c7.2,0,10.8,5.1,10.8,11.2
			C-96.5-96.4-100.9-91.8-107.6-91.8"/>
		<polygon id="Fill-8" class="st24" points="-61.5,-110.4 -67.7,-92.3 -70.9,-92.3 -77.1,-107.6 -77.4,-107.6 -83.4,-92.3 
			-86.4,-92.3 -92.8,-110.4 -95,-110.4 -95,-113.7 -84.6,-113.7 -84.6,-110.4 -88.3,-110.4 -84.4,-98.4 -84.1,-98.4 -78.2,-113.7 
			-75.5,-113.7 -69.1,-98.5 -68.8,-98.5 -65.5,-110.4 -69.1,-110.4 -69.1,-113.7 -59.2,-113.7 -59.2,-110.4 		"/>
		<path id="Fill-10_1_" class="st24" d="M-47.8-91.8c-6,0-10-3.9-10-10.8c0-6.5,3.8-11.5,10.4-11.5c2.7,0,5.2,0.6,7.4,2.2l0.9,5.6
			l-3.4,0.4l-0.8-3.6c-1.2-0.7-2.6-1.1-4.2-1.1c-4,0-5.9,3.2-5.9,7.8c0,4.8,2.1,7.6,6,7.6c3.1,0,4.8-1.8,5.3-5.2l3.6,0.7
			C-39-95.9-41.6-91.8-47.8-91.8"/>
		<path id="Fill-12_1_" class="st24" d="M-21.6-101.8c-1.2-0.1-2.4-0.2-3.7-0.2c-2.9,0-5.7,0.7-5.7,3.7c0,2.3,1.7,3.3,3.6,3.3
			c2.7,0,5.6-2,5.8-5.5V-101.8z M-25.3-114.2c4.8,0,7.9,2.4,7.9,7.2v9.9c0,1.5,0.5,2.1,1.7,2.1c0.4,0,0.9-0.1,1.3-0.2l0,2.5
			c-0.9,0.5-2,0.8-3.1,0.8c-2.6,0-4-1.7-4.1-4.3v0c-1.3,2.3-3.7,4.4-7.2,4.4c-2.9,0-6.6-1.5-6.6-6c0-5.4,5.2-6.6,10-6.6
			c1.3,0,2.6,0,3.7,0.2v-1.6c0-2.8-0.7-5.1-4.5-5.1c-1.4,0-2.7,0.2-3.9,0.8l-0.8,3.5l-3.4-0.4l0.9-5.1
			C-30.7-113.6-28.4-114.2-25.3-114.2L-25.3-114.2z"/>
		<path id="Fill-14_1_" class="st24" d="M-3.4-91.8c-3,0-6.3-0.8-8.4-2.1l0.7-5.2l3.3,0.3L-7.9-96c1.3,0.6,2.9,0.9,4.3,0.9
			c2.8,0,5.4-1,5.4-3.2c0-5.2-13.3-1.2-13.3-9.5c0-4.8,4.3-6.4,8.4-6.4c2.9,0,5.6,0.8,7.7,2L5-107l-3.4,0.4L1.2-110
			c-1.2-0.6-2.6-0.9-4.1-0.9c-2.4,0-4.1,0.9-4.1,2.9c0,5,13.1,1,13.1,9.5C6.1-94.2,2.1-91.8-3.4-91.8"/>
		<path id="Fill-16_1_" class="st24" d="M19.4-110.9c-3.5,0-5.2,2.7-5.6,6h10.7C24.7-107.7,23.1-110.9,19.4-110.9 M19.7-91.8
			c-6.2,0-10.4-3.8-10.4-10.8c0-6.7,3.8-11.5,10.1-11.5c5.9,0,9.3,4.2,9.4,9.4c0,0.9-0.1,1.8-0.3,2.7H13.7c0.2,4.4,2.4,6.8,6.3,6.8
			c3.3,0,4.9-1.8,5.5-4.1l3.5,0.7C28.5-94.9,25.3-91.8,19.7-91.8"/>
	</g>
</g>
</svg>
