<?xml version="1.0" encoding="UTF-8"?>
<svg width="803px" height="155px" viewBox="0 0 803 155" version="1.1" xmlns="http://www.w3.org/2000/svg" xmlns:xlink="http://www.w3.org/1999/xlink">
    <title>Group 2</title>
    <g id="Welcome" stroke="none" stroke-width="1" fill="none" fill-rule="evenodd">
        <g id="Group-2">
            <g id="Showcase">
                <polygon id="Fill-1" fill="#FEFEFE" points="0 60 321 60 321 0 0 0"></polygon>
                <g id="Group-18" transform="translate(24.000000, 13.000000)" fill="#231F20">
                    <path d="M10.5762405,33.2330571 C6.5101605,33.2330571 2.5376555,32.2072286 0.4100555,30.5752286 L1.1192555,24.1395143 L4.5706955,24.4659143 L4.4761355,28.2438 C6.5564555,29.3162571 8.4476555,29.5494 10.3398405,29.5494 C14.2168005,29.5494 17.2900005,28.3360857 17.2900005,24.5125429 C17.2900005,20.2693429 13.6967205,19.5232857 10.0088805,18.7772286 C5.6108555,17.8912857 0.5991755,16.7722 0.5991755,10.6162571 C0.5991755,4.6002 5.3744555,1.989 10.7653605,1.989 C14.3586405,1.989 18.2356005,3.10808571 20.2213605,4.74008571 L20.5060255,10.9426571 L17.0536005,11.2690571 L16.5335205,7.02488571 C14.6896005,6.00002857 12.7511205,5.72025714 11.0490405,5.72025714 C7.5503205,5.72025714 5.1853355,7.21237143 5.1853355,10.1499714 C5.1853355,13.5538571 8.3540805,14.3475143 11.5691205,15.0935714 C15.5879205,15.9785429 21.8771455,16.9120857 21.8771455,24.0928857 C21.8771455,30.0156857 17.2437055,33.2330571 10.5762405,33.2330571" id="Fill-2"></path>
                    <path d="M39.038308,32.7668686 L39.038308,29.5961257 L42.489748,29.5961257 L42.489748,20.59584 C42.489748,16.35264 40.645828,14.7662971 37.856308,14.7662971 C34.452148,14.7662971 32.229003,17.4250971 32.087163,20.3626971 L32.087163,29.5961257 L35.539588,29.5961257 L35.539588,32.7668686 L24.569643,32.7668686 L24.569643,29.5961257 L27.973803,29.5961257 L27.973803,3.90184 L24.569643,3.90184 L24.569643,0.683497143 L32.087163,0.683497143 L32.087163,15.5123543 C33.505563,13.04104 36.012388,11.5022971 39.321988,11.5022971 C43.435348,11.5022971 46.651373,13.8803543 46.651373,19.1969829 L46.651373,29.5961257 L50.055533,29.5961257 L50.055533,32.7668686 L39.038308,32.7668686 Z" id="Fill-4"></path>
                    <path d="M62.6778155,14.7664914 C58.6117355,14.7664914 56.3413105,17.8906057 56.3413105,22.3212914 C56.3413105,26.5644914 58.4698955,29.92272 62.6305355,29.92272 C66.7438955,29.92272 69.0606155,26.7043771 69.0606155,22.2280343 C69.0606155,17.6584343 66.6020555,14.7664914 62.6778155,14.7664914 M62.4886955,33.2333486 C56.0586155,33.2333486 52.0388305,28.9425486 52.0388305,22.5544343 C52.0388305,16.4460914 55.6803755,11.4558629 62.7723755,11.4558629 C69.8653605,11.4558629 73.4113605,16.4460914 73.4113605,22.36792 C73.4113605,28.7560343 69.0606155,33.2333486 62.4886955,33.2333486" id="Fill-6"></path>
                    <polygon id="Fill-8" points="107.832481 15.1398114 101.733361 32.7673543 98.612881 32.7673543 92.464511 17.8908971 92.229096 17.8908971 86.270831 32.7673543 83.292191 32.7673543 77.002966 15.1398114 74.828086 15.1398114 74.828086 11.9214686 85.136111 11.9214686 85.136111 15.1398114 81.448271 15.1398114 85.325231 26.7979257 85.562616 26.7979257 91.425336 11.9214686 94.073016 11.9214686 100.409521 26.7512971 100.693201 26.7512971 103.954536 15.1398114 100.409521 15.1398114 100.409521 11.9214686 110.102906 11.9214686 110.102906 15.1398114"></polygon>
                    <path d="M121.400265,33.2330571 C115.490265,33.2330571 111.51776,29.4561429 111.51776,22.6940286 C111.51776,16.3982 115.301145,11.5022 121.731225,11.5022 C124.378905,11.5022 126.83845,12.0617429 129.059625,13.6014571 L129.91165,19.0103714 L126.553785,19.3834 L125.79829,15.8862571 C124.56901,15.1858571 123.244185,14.8594571 121.683945,14.8594571 C117.712425,14.8594571 115.868505,17.9845429 115.868505,22.4608857 C115.868505,27.1237429 117.901545,29.8758 121.825785,29.8758 C124.851705,29.8758 126.50749,28.1505429 127.07485,24.8389429 L130.57357,25.5393429 C130.05349,29.223 127.499385,33.2330571 121.400265,33.2330571" id="Fill-10"></path>
                    <path d="M147.12088,23.5335371 C145.986161,23.44028 144.75688,23.3003943 143.480321,23.3003943 C140.595256,23.3003943 137.900296,23.9531943 137.900296,26.8917657 C137.900296,29.1299371 139.555095,30.0625086 141.399016,30.0625086 C144.094961,30.0625086 146.88448,28.1041086 147.12088,24.74588 L147.12088,23.5335371 Z M143.480321,11.5023943 C148.254615,11.5023943 151.28152,13.7871943 151.28152,18.54428 L151.28152,28.1963943 C151.28152,29.6428514 151.801601,30.2490229 152.93632,30.2490229 C153.31456,30.2490229 153.834641,30.1557657 154.21288,30.01588 L154.26016,32.4405657 C153.40912,32.95348 152.274401,33.2332514 151.18696,33.2332514 C148.63384,33.2332514 147.262721,31.6012514 147.12088,29.03668 L147.12088,28.9900514 C145.843335,31.1815943 143.480321,33.2332514 140.075176,33.2332514 C137.191096,33.2332514 133.597815,31.7411371 133.597815,27.3580514 C133.597815,22.13468 138.704056,20.9689657 143.480321,20.9689657 C144.75688,20.9689657 146.03344,21.0155943 147.12088,21.15548 L147.12088,19.6167371 C147.12088,16.91228 146.410696,14.6731371 142.722856,14.6731371 C141.352721,14.6731371 140.075176,14.8596514 138.89219,15.4658229 L138.089416,18.87068 L134.732536,18.49668 L135.582591,13.5074229 C138.183976,12.0153086 140.500696,11.5023943 143.480321,11.5023943 L143.480321,11.5023943 Z" id="Fill-12"></path>
                    <path d="M165.133674,33.2330571 C162.155034,33.2330571 158.939009,32.4403714 156.858689,31.1814 L157.520609,26.1455143 L160.782929,26.4719143 L160.688369,29.1763714 C161.964929,29.7825429 163.525169,30.0156857 164.944554,30.0156857 C167.686794,30.0156857 170.239914,29.0364857 170.239914,26.9382 C170.239914,21.8547143 157.142369,25.8181429 157.142369,17.7047714 C157.142369,13.0409429 161.397569,11.5022 165.369089,11.5022 C168.254154,11.5022 170.854554,12.2948857 172.934874,13.4139714 L173.407674,18.4508286 L170.098074,18.8238571 L169.625274,15.5598571 C168.395994,14.9993429 167.072154,14.6739143 165.559194,14.6739143 C163.241489,14.6739143 161.540394,15.5122571 161.540394,17.4706571 C161.540394,22.321 174.400554,18.4042 174.400554,26.6574571 C174.400554,30.855 170.476314,33.2330571 165.133674,33.2330571" id="Fill-14"></path>
                    <path d="M187.496326,14.6735257 C184.044886,14.6735257 182.389101,17.2847257 182.011846,20.5020971 L192.508991,20.5020971 C192.792671,17.7510114 191.231446,14.6735257 187.496326,14.6735257 M187.874566,33.2326686 C181.774461,33.2326686 177.613821,29.5023829 177.613821,22.6946114 C177.613821,16.2122686 181.349926,11.5018114 187.590886,11.5018114 C193.359046,11.5018114 196.764191,15.5594686 196.811471,20.5953543 C196.811471,21.4346686 196.716911,22.3215829 196.527791,23.2541543 L181.964566,23.2541543 C182.152701,27.4973543 184.328566,29.8754114 188.158246,29.8754114 C191.420566,29.8754114 192.980806,28.1035257 193.549151,25.9119829 L196.999606,26.6114114 C196.527791,30.2018114 193.311766,33.2326686 187.874566,33.2326686" id="Fill-16"></path>
                </g>
            </g>
            <path d="M11.43,115.345 C14.49,115.345 17.13,114.6325 19.35,113.2075 C21.57,111.7825 22.68,109.555 22.68,106.525 C22.68,104.725 22.2,103.18 21.24,101.89 C20.28,100.6 18.735,99.745 16.605,99.325 L16.605,99.325 L16.605,99.145 C18.435,98.395 19.7325,97.4425 20.4975,96.2875 C21.2625,95.1325 21.645,93.82 21.645,92.35 C21.645,89.89 20.7525,88.0675 18.9675,86.8825 C17.1825,85.6975 14.94,85.105 12.24,85.105 C11.25,85.105 9.93,85.2175 8.28,85.4425 C6.63,85.6675 4.935,86.14 3.195,86.86 L3.195,86.86 L2.25,93.745 L6.885,94.24 L7.56,90.91 C8.04,90.67 8.6625,90.4975 9.4275,90.3925 C10.1925,90.2875 10.845,90.235 11.385,90.235 C13.905,90.235 15.165,91.3 15.165,93.43 C15.165,93.85 15.045,94.3975 14.805,95.0725 C14.565,95.7475 14.0325,96.34 13.2075,96.85 C12.3825,97.36 11.085,97.615 9.315,97.615 L9.315,97.615 L9.315,101.575 C11.475,101.635 13.155,101.98 14.355,102.61 C15.555,103.24 16.155,104.305 16.155,105.805 C16.155,106.915 15.7875,107.9275 15.0525,108.8425 C14.3175,109.7575 13.095,110.215 11.385,110.215 C9.615,110.215 8.37,109.7425 7.65,108.7975 C6.93,107.8525 6.57,106.855 6.57,105.805 L6.57,105.805 L1.665,107.29 C1.695,109.75 2.52,111.7075 4.14,113.1625 C5.76,114.6175 8.19,115.345 11.43,115.345 Z M36.765,109.45 C40.305,109.45 43.1475,108.49 45.2925,106.57 C47.4375,104.65 48.51,101.65 48.51,97.57 C48.51,93.97 47.58,90.9925 45.72,88.6375 C43.86,86.2825 40.935,85.105 36.945,85.105 C33.195,85.105 30.33,86.2675 28.35,88.5925 C26.37,90.9175 25.38,93.94 25.38,97.66 C25.38,101.74 26.3925,104.725 28.4175,106.615 C30.4425,108.505 33.225,109.45 36.765,109.45 Z M36.9,104.14 C35.31,104.14 34.08,103.6675 33.21,102.7225 C32.34,101.7775 31.905,99.955 31.905,97.255 C31.905,94.585 32.3325,92.7775 33.1875,91.8325 C34.0425,90.8875 35.28,90.415 36.9,90.415 C38.43,90.415 39.6675,90.865 40.6125,91.765 C41.5575,92.665 42.03,94.495 42.03,97.255 C42.03,100.105 41.5425,101.965 40.5675,102.835 C39.5925,103.705 38.37,104.14 36.9,104.14 Z M73.755,109 L73.755,103.87 L69.255,103.87 L69.255,99.19 L73.755,99.19 C76.635,99.19 79.1625,98.3725 81.3375,96.7375 C83.5125,95.1025 84.6,92.62 84.6,89.29 C84.6,86.35 83.655,84.025 81.765,82.315 C79.875,80.605 77.115,79.75 73.485,79.75 L73.485,79.75 L60.075,79.75 L60.075,84.88 L63.225,84.88 L63.225,103.87 L60.075,103.87 L60.075,109 L73.755,109 Z M72.63,94.105 L69.255,94.105 L69.255,84.88 L72.72,84.88 C74.73,84.88 76.1325,85.27 76.9275,86.05 C77.7225,86.83 78.12,87.94 78.12,89.38 C78.12,90.79 77.7225,91.93 76.9275,92.8 C76.1325,93.67 74.7,94.105 72.63,94.105 L72.63,94.105 Z M99.09,109 L99.09,103.87 L95.94,103.87 L95.94,97.84 L99.9,97.84 L105.705,109 L113.175,109 L113.175,103.87 L109.665,103.87 L105.705,96.58 C107.385,95.92 108.735,94.9225 109.755,93.5875 C110.775,92.2525 111.285,90.595 111.285,88.615 C111.285,85.675 110.31,83.4625 108.36,81.9775 C106.41,80.4925 103.62,79.75 99.99,79.75 L99.99,79.75 L86.76,79.75 L86.76,84.88 L89.91,84.88 L89.91,103.87 L86.76,103.87 L86.76,109 L99.09,109 Z M98.82,93.07 L95.94,93.07 L95.94,84.88 L98.91,84.88 C101.1,84.88 102.63,85.1575 103.5,85.7125 C104.37,86.2675 104.805,87.28 104.805,88.75 C104.805,90.13 104.385,91.195 103.545,91.945 C102.705,92.695 101.13,93.07 98.82,93.07 L98.82,93.07 Z M129.33,109.45 C134.07,109.45 137.7675,107.965 140.4225,104.995 C143.0775,102.025 144.405,98.47 144.405,94.33 C144.405,90.22 143.0925,86.6875 140.4675,83.7325 C137.8425,80.7775 134.19,79.3 129.51,79.3 C124.92,79.3 121.275,80.755 118.575,83.665 C115.875,86.575 114.525,90.16 114.525,94.42 C114.525,98.5 115.8,102.025 118.35,104.995 C120.9,107.965 124.56,109.45 129.33,109.45 Z M129.645,104.14 C126.555,104.14 124.35,103.165 123.03,101.215 C121.71,99.265 121.05,96.955 121.05,94.285 C121.05,91.525 121.725,89.2225 123.075,87.3775 C124.425,85.5325 126.555,84.61 129.465,84.61 C132.195,84.61 134.28,85.48 135.72,87.22 C137.16,88.96 137.88,91.39 137.88,94.51 C137.88,97.36 137.22,99.6775 135.9,101.4625 C134.58,103.2475 132.495,104.14 129.645,104.14 Z M160.515,109 C165.135,109 168.75,107.65 171.36,104.95 C173.97,102.25 175.275,98.68 175.275,94.24 C175.275,89.92 174.0075,86.425 171.4725,83.755 C168.9375,81.085 165.165,79.75 160.155,79.75 L160.155,79.75 L146.745,79.75 L146.745,84.88 L149.895,84.88 L149.895,103.87 L146.745,103.87 L146.745,109 L160.515,109 Z M160.02,103.87 L155.925,103.87 L155.925,84.88 L160.02,84.88 C165.87,84.88 168.795,88.03 168.795,94.33 C168.795,97.69 168.0375,100.12 166.5225,101.62 C165.0075,103.12 162.84,103.87 160.02,103.87 L160.02,103.87 Z M192.06,109.45 C195.18,109.45 197.655,108.835 199.485,107.605 C201.315,106.375 202.62,104.8 203.4,102.88 C204.18,100.96 204.57,98.965 204.57,96.895 L204.57,96.895 L204.57,84.88 L207.18,84.88 L207.18,79.75 L195.525,79.75 L195.525,84.88 L198.945,84.88 L198.945,96.895 C198.945,99.085 198.4275,100.84 197.3925,102.16 C196.3575,103.48 194.685,104.14 192.375,104.14 C190.035,104.14 188.3775,103.4875 187.4025,102.1825 C186.4275,100.8775 185.94,99.22 185.94,97.21 L185.94,97.21 L185.94,84.88 L189.36,84.88 L189.36,79.75 L177.3,79.75 L177.3,84.88 L179.91,84.88 L179.91,97.39 C179.91,100.54 180.825,103.3375 182.655,105.7825 C184.485,108.2275 187.62,109.45 192.06,109.45 Z M223.785,109.45 C225.885,109.45 227.9925,109.12 230.1075,108.46 C232.2225,107.8 233.76,106.945 234.72,105.895 L234.72,105.895 L235.305,99.01 L230.4,98.56 L229.77,102.925 C228.42,103.735 226.56,104.14 224.19,104.14 C221.67,104.14 219.6,103.375 217.98,101.845 C216.36,100.315 215.55,97.855 215.55,94.465 C215.55,91.255 216.2925,88.81 217.7775,87.13 C219.2625,85.45 221.265,84.61 223.785,84.61 C224.775,84.61 225.825,84.745 226.935,85.015 C228.045,85.285 228.99,85.675 229.77,86.185 L229.77,86.185 L230.4,90.055 L235.305,89.605 L234.585,82.81 C233.655,81.94 232.29,81.1375 230.49,80.4025 C228.69,79.6675 226.545,79.3 224.055,79.3 C220.365,79.3 217.425,80.125 215.235,81.775 C213.045,83.425 211.47,85.45 210.51,87.85 C209.55,90.25 209.07,92.59 209.07,94.87 C209.07,99.22 210.48,102.7375 213.3,105.4225 C216.12,108.1075 219.615,109.45 223.785,109.45 Z M259.38,109 L259.38,103.87 L254.61,103.87 L254.61,84.88 L259.245,84.88 L260.145,90.1 L265.275,89.65 L264.375,79.75 L238.815,79.75 L237.915,89.65 L243.045,90.1 L243.945,84.88 L248.58,84.88 L248.58,103.87 L244.08,103.87 L244.08,109 L259.38,109 Z M278.46,109.45 C282.03,109.45 284.835,108.655 286.875,107.065 C288.915,105.475 289.935,103.165 289.935,100.135 C289.935,97.645 289.3275,95.8075 288.1125,94.6225 C286.8975,93.4375 285.4875,92.6275 283.8825,92.1925 C282.2775,91.7575 280.875,91.42 279.675,91.18 C278.355,90.88 277.185,90.49 276.165,90.01 C275.145,89.53 274.635,88.675 274.635,87.445 C274.635,86.395 275.0325,85.66 275.8275,85.24 C276.6225,84.82 277.62,84.61 278.82,84.61 C279.54,84.61 280.2825,84.7 281.0475,84.88 C281.8125,85.06 282.57,85.405 283.32,85.915 L283.32,85.915 L283.725,89.335 L288.54,88.885 L288.27,82.54 C287.34,81.55 286.005,80.7625 284.265,80.1775 C282.525,79.5925 280.695,79.3 278.775,79.3 C276.135,79.3 273.705,79.9675 271.485,81.3025 C269.265,82.6375 268.155,84.94 268.155,88.21 C268.155,90.31 268.635,91.8925 269.595,92.9575 C270.555,94.0225 271.7475,94.7875 273.1725,95.2525 C274.5975,95.7175 276.015,96.07 277.425,96.31 C279.045,96.61 280.455,97.0375 281.655,97.5925 C282.855,98.1475 283.455,99.235 283.455,100.855 C283.455,102.325 282.945,103.2625 281.925,103.6675 C280.905,104.0725 279.6,104.275 278.01,104.275 C277.5,104.275 276.885,104.2225 276.165,104.1175 C275.445,104.0125 274.575,103.69 273.555,103.15 L273.555,103.15 L273.6,99.595 L268.785,99.145 L267.885,106.39 C269.025,107.41 270.5775,108.175 272.5425,108.685 C274.5075,109.195 276.48,109.45 278.46,109.45 Z M297.135,112.825 L299.835,102.295 L294.165,102.295 L291.465,112.825 L297.135,112.825 Z M325.53,109.45 C327.63,109.45 329.7375,109.12 331.8525,108.46 C333.9675,107.8 335.505,106.945 336.465,105.895 L336.465,105.895 L337.05,99.01 L332.145,98.56 L331.515,102.925 C330.165,103.735 328.305,104.14 325.935,104.14 C323.415,104.14 321.345,103.375 319.725,101.845 C318.105,100.315 317.295,97.855 317.295,94.465 C317.295,91.255 318.0375,88.81 319.5225,87.13 C321.0075,85.45 323.01,84.61 325.53,84.61 C326.52,84.61 327.57,84.745 328.68,85.015 C329.79,85.285 330.735,85.675 331.515,86.185 L331.515,86.185 L332.145,90.055 L337.05,89.605 L336.33,82.81 C335.4,81.94 334.035,81.1375 332.235,80.4025 C330.435,79.6675 328.29,79.3 325.8,79.3 C322.11,79.3 319.17,80.125 316.98,81.775 C314.79,83.425 313.215,85.45 312.255,87.85 C311.295,90.25 310.815,92.59 310.815,94.87 C310.815,99.22 312.225,102.7375 315.045,105.4225 C317.865,108.1075 321.36,109.45 325.53,109.45 Z M354.6,109.45 C359.34,109.45 363.0375,107.965 365.6925,104.995 C368.3475,102.025 369.675,98.47 369.675,94.33 C369.675,90.22 368.3625,86.6875 365.7375,83.7325 C363.1125,80.7775 359.46,79.3 354.78,79.3 C350.19,79.3 346.545,80.755 343.845,83.665 C341.145,86.575 339.795,90.16 339.795,94.42 C339.795,98.5 341.07,102.025 343.62,104.995 C346.17,107.965 349.83,109.45 354.6,109.45 Z M354.915,104.14 C351.825,104.14 349.62,103.165 348.3,101.215 C346.98,99.265 346.32,96.955 346.32,94.285 C346.32,91.525 346.995,89.2225 348.345,87.3775 C349.695,85.5325 351.825,84.61 354.735,84.61 C357.465,84.61 359.55,85.48 360.99,87.22 C362.43,88.96 363.15,91.39 363.15,94.51 C363.15,97.36 362.49,99.6775 361.17,101.4625 C359.85,103.2475 357.765,104.14 354.915,104.14 Z M383.67,109 L383.67,103.87 L380.88,103.87 L380.88,92.17 L381.06,92.17 L389.34,106.615 L391.86,106.615 L399.555,92.71 L399.735,92.71 L399.735,103.87 L397.17,103.87 L397.17,109 L408.915,109 L408.915,103.87 L405.765,103.87 L405.765,84.88 L409.365,84.88 L409.365,79.75 L400.635,79.75 L390.87,97.885 L390.69,97.885 L380.295,79.75 L371.655,79.75 L371.655,84.88 L375.255,84.88 L375.255,103.87 L372.105,103.87 L372.105,109 L383.67,109 Z M426.195,109 L426.195,103.87 L421.695,103.87 L421.695,99.19 L426.195,99.19 C429.075,99.19 431.6025,98.3725 433.7775,96.7375 C435.9525,95.1025 437.04,92.62 437.04,89.29 C437.04,86.35 436.095,84.025 434.205,82.315 C432.315,80.605 429.555,79.75 425.925,79.75 L425.925,79.75 L412.515,79.75 L412.515,84.88 L415.665,84.88 L415.665,103.87 L412.515,103.87 L412.515,109 L426.195,109 Z M425.07,94.105 L421.695,94.105 L421.695,84.88 L425.16,84.88 C427.17,84.88 428.5725,85.27 429.3675,86.05 C430.1625,86.83 430.56,87.94 430.56,89.38 C430.56,90.79 430.1625,91.93 429.3675,92.8 C428.5725,93.67 427.14,94.105 425.07,94.105 L425.07,94.105 Z M447.03,109 L447.03,103.87 L444.285,103.87 L445.5,100.9 L455.445,100.9 L456.525,103.87 L454.185,103.87 L454.185,109 L465.84,109 L465.84,103.87 L463.05,103.87 L452.52,79.75 L442.485,79.75 L442.485,84.88 L446.535,84.88 L438.165,103.87 L435.51,103.87 L435.51,109 L447.03,109 Z M453.825,96.58 L447.21,96.58 L450.495,88.345 L450.765,88.345 L453.825,96.58 Z M492.3,109.045 L495.675,109 L495.675,84.88 L498.825,84.88 L498.825,79.75 L485.82,79.75 L485.82,84.88 L490.05,84.88 L490.05,97.12 L489.87,97.12 L475.11,79.75 L467.145,79.75 L467.145,84.88 L470.79,84.88 L470.79,103.87 L467.64,103.87 L467.64,109 L480.465,109 L480.465,103.87 L476.415,103.87 L476.415,90.46 L476.595,90.46 L492.3,109.045 Z M514.125,109 L514.125,103.87 L510.975,103.87 L510.975,84.88 L514.125,84.88 L514.125,79.75 L501.795,79.75 L501.795,84.88 L504.945,84.88 L504.945,103.87 L501.795,103.87 L501.795,109 L514.125,109 Z M540.225,109 L541.125,100.45 L535.995,100 L535.095,103.87 L526.815,103.87 L526.815,96.85 L539.145,96.85 L539.145,91.765 L526.815,91.765 L526.815,84.88 L534.825,84.88 L535.725,88.75 L540.855,88.3 L539.955,79.75 L517.635,79.75 L517.635,84.88 L520.785,84.88 L520.785,103.87 L517.635,103.87 L517.635,109 L540.225,109 Z M554.76,109.45 C558.33,109.45 561.135,108.655 563.175,107.065 C565.215,105.475 566.235,103.165 566.235,100.135 C566.235,97.645 565.6275,95.8075 564.4125,94.6225 C563.1975,93.4375 561.7875,92.6275 560.1825,92.1925 C558.5775,91.7575 557.175,91.42 555.975,91.18 C554.655,90.88 553.485,90.49 552.465,90.01 C551.445,89.53 550.935,88.675 550.935,87.445 C550.935,86.395 551.3325,85.66 552.1275,85.24 C552.9225,84.82 553.92,84.61 555.12,84.61 C555.84,84.61 556.5825,84.7 557.3475,84.88 C558.1125,85.06 558.87,85.405 559.62,85.915 L559.62,85.915 L560.025,89.335 L564.84,88.885 L564.57,82.54 C563.64,81.55 562.305,80.7625 560.565,80.1775 C558.825,79.5925 556.995,79.3 555.075,79.3 C552.435,79.3 550.005,79.9675 547.785,81.3025 C545.565,82.6375 544.455,84.94 544.455,88.21 C544.455,90.31 544.935,91.8925 545.895,92.9575 C546.855,94.0225 548.0475,94.7875 549.4725,95.2525 C550.8975,95.7175 552.315,96.07 553.725,96.31 C555.345,96.61 556.755,97.0375 557.955,97.5925 C559.155,98.1475 559.755,99.235 559.755,100.855 C559.755,102.325 559.245,103.2625 558.225,103.6675 C557.205,104.0725 555.9,104.275 554.31,104.275 C553.8,104.275 553.185,104.2225 552.465,104.1175 C551.745,104.0125 550.875,103.69 549.855,103.15 L549.855,103.15 L549.9,99.595 L545.085,99.145 L544.185,106.39 C545.325,107.41 546.8775,108.175 548.8425,108.685 C550.8075,109.195 552.78,109.45 554.76,109.45 Z M573.435,112.825 L576.135,102.295 L570.465,102.295 L567.765,112.825 L573.435,112.825 Z M601.47,109 L601.47,103.87 L596.97,103.87 L596.97,99.19 L601.47,99.19 C604.35,99.19 606.8775,98.3725 609.0525,96.7375 C611.2275,95.1025 612.315,92.62 612.315,89.29 C612.315,86.35 611.37,84.025 609.48,82.315 C607.59,80.605 604.83,79.75 601.2,79.75 L601.2,79.75 L587.79,79.75 L587.79,84.88 L590.94,84.88 L590.94,103.87 L587.79,103.87 L587.79,109 L601.47,109 Z M600.345,94.105 L596.97,94.105 L596.97,84.88 L600.435,84.88 C602.445,84.88 603.8475,85.27 604.6425,86.05 C605.4375,86.83 605.835,87.94 605.835,89.38 C605.835,90.79 605.4375,91.93 604.6425,92.8 C603.8475,93.67 602.415,94.105 600.345,94.105 L600.345,94.105 Z M626.805,109 L626.805,103.87 L623.655,103.87 L623.655,97.84 L627.615,97.84 L633.42,109 L640.89,109 L640.89,103.87 L637.38,103.87 L633.42,96.58 C635.1,95.92 636.45,94.9225 637.47,93.5875 C638.49,92.2525 639,90.595 639,88.615 C639,85.675 638.025,83.4625 636.075,81.9775 C634.125,80.4925 631.335,79.75 627.705,79.75 L627.705,79.75 L614.475,79.75 L614.475,84.88 L617.625,84.88 L617.625,103.87 L614.475,103.87 L614.475,109 L626.805,109 Z M626.535,93.07 L623.655,93.07 L623.655,84.88 L626.625,84.88 C628.815,84.88 630.345,85.1575 631.215,85.7125 C632.085,86.2675 632.52,87.28 632.52,88.75 C632.52,90.13 632.1,91.195 631.26,91.945 C630.42,92.695 628.845,93.07 626.535,93.07 L626.535,93.07 Z M657.045,109.45 C661.785,109.45 665.4825,107.965 668.1375,104.995 C670.7925,102.025 672.12,98.47 672.12,94.33 C672.12,90.22 670.8075,86.6875 668.1825,83.7325 C665.5575,80.7775 661.905,79.3 657.225,79.3 C652.635,79.3 648.99,80.755 646.29,83.665 C643.59,86.575 642.24,90.16 642.24,94.42 C642.24,98.5 643.515,102.025 646.065,104.995 C648.615,107.965 652.275,109.45 657.045,109.45 Z M657.36,104.14 C654.27,104.14 652.065,103.165 650.745,101.215 C649.425,99.265 648.765,96.955 648.765,94.285 C648.765,91.525 649.44,89.2225 650.79,87.3775 C652.14,85.5325 654.27,84.61 657.18,84.61 C659.91,84.61 661.995,85.48 663.435,87.22 C664.875,88.96 665.595,91.39 665.595,94.51 C665.595,97.36 664.935,99.6775 663.615,101.4625 C662.295,103.2475 660.21,104.14 657.36,104.14 Z M681.48,109.45 C684.12,109.45 686.2575,108.7225 687.8925,107.2675 C689.5275,105.8125 690.345,103.615 690.345,100.675 L690.345,100.675 L690.345,84.88 L693.045,84.88 L693.045,79.75 L679.185,79.75 L679.185,84.88 L684.315,84.88 L684.315,100.72 C684.315,101.62 684.0525,102.37 683.5275,102.97 C683.0025,103.57 682.125,103.87 680.895,103.87 C680.175,103.87 679.4625,103.675 678.7575,103.285 C678.0525,102.895 677.445,102.04 676.935,100.72 L676.935,100.72 L672.705,103.915 C673.335,105.385 674.3325,106.675 675.6975,107.785 C677.0625,108.895 678.99,109.45 681.48,109.45 Z M718.695,109 L719.595,100.45 L714.465,100 L713.565,103.87 L705.285,103.87 L705.285,96.85 L717.615,96.85 L717.615,91.765 L705.285,91.765 L705.285,84.88 L713.295,84.88 L714.195,88.75 L719.325,88.3 L718.425,79.75 L696.105,79.75 L696.105,84.88 L699.255,84.88 L699.255,103.87 L696.105,103.87 L696.105,109 L718.695,109 Z M736.83,109.45 C738.93,109.45 741.0375,109.12 743.1525,108.46 C745.2675,107.8 746.805,106.945 747.765,105.895 L747.765,105.895 L748.35,99.01 L743.445,98.56 L742.815,102.925 C741.465,103.735 739.605,104.14 737.235,104.14 C734.715,104.14 732.645,103.375 731.025,101.845 C729.405,100.315 728.595,97.855 728.595,94.465 C728.595,91.255 729.3375,88.81 730.8225,87.13 C732.3075,85.45 734.31,84.61 736.83,84.61 C737.82,84.61 738.87,84.745 739.98,85.015 C741.09,85.285 742.035,85.675 742.815,86.185 L742.815,86.185 L743.445,90.055 L748.35,89.605 L747.63,82.81 C746.7,81.94 745.335,81.1375 743.535,80.4025 C741.735,79.6675 739.59,79.3 737.1,79.3 C733.41,79.3 730.47,80.125 728.28,81.775 C726.09,83.425 724.515,85.45 723.555,87.85 C722.595,90.25 722.115,92.59 722.115,94.87 C722.115,99.22 723.525,102.7375 726.345,105.4225 C729.165,108.1075 732.66,109.45 736.83,109.45 Z M772.425,109 L772.425,103.87 L767.655,103.87 L767.655,84.88 L772.29,84.88 L773.19,90.1 L778.32,89.65 L777.42,79.75 L751.86,79.75 L750.96,89.65 L756.09,90.1 L756.99,84.88 L761.625,84.88 L761.625,103.87 L757.125,103.87 L757.125,109 L772.425,109 Z M791.505,109.45 C795.075,109.45 797.88,108.655 799.92,107.065 C801.96,105.475 802.98,103.165 802.98,100.135 C802.98,97.645 802.3725,95.8075 801.1575,94.6225 C799.9425,93.4375 798.5325,92.6275 796.9275,92.1925 C795.3225,91.7575 793.92,91.42 792.72,91.18 C791.4,90.88 790.23,90.49 789.21,90.01 C788.19,89.53 787.68,88.675 787.68,87.445 C787.68,86.395 788.0775,85.66 788.8725,85.24 C789.6675,84.82 790.665,84.61 791.865,84.61 C792.585,84.61 793.3275,84.7 794.0925,84.88 C794.8575,85.06 795.615,85.405 796.365,85.915 L796.365,85.915 L796.77,89.335 L801.585,88.885 L801.315,82.54 C800.385,81.55 799.05,80.7625 797.31,80.1775 C795.57,79.5925 793.74,79.3 791.82,79.3 C789.18,79.3 786.75,79.9675 784.53,81.3025 C782.31,82.6375 781.2,84.94 781.2,88.21 C781.2,90.31 781.68,91.8925 782.64,92.9575 C783.6,94.0225 784.7925,94.7875 786.2175,95.2525 C787.6425,95.7175 789.06,96.07 790.47,96.31 C792.09,96.61 793.5,97.0375 794.7,97.5925 C795.9,98.1475 796.5,99.235 796.5,100.855 C796.5,102.325 795.99,103.2625 794.97,103.6675 C793.95,104.0725 792.645,104.275 791.055,104.275 C790.545,104.275 789.93,104.2225 789.21,104.1175 C788.49,104.0125 787.62,103.69 786.6,103.15 L786.6,103.15 L786.645,99.595 L781.83,99.145 L780.93,106.39 C782.07,107.41 783.6225,108.175 785.5875,108.685 C787.5525,109.195 789.525,109.45 791.505,109.45 Z" id="30PRODUCTS,COMPANIES,PROJECTS" fill="#FFFFFF" fill-rule="nonzero"></path>
            <path d="M11.832,154 L11.832,129.928 L9.656,129.928 L3.536,134.96 L5.066,136.796 L9.384,132.988 L9.384,154 L11.832,154 Z M28.356,154.408 C30.0786667,154.408 31.4726667,154.011333 32.538,153.218 C33.6033333,152.424667 34.4306667,151.416 35.02,150.192 C35.6093333,148.968 36.006,147.625 36.21,146.163 C36.414,144.701 36.516,143.301333 36.516,141.964 C36.516,140.626667 36.414,139.227 36.21,137.765 C36.006,136.303 35.6093333,134.96 35.02,133.736 C34.4306667,132.512 33.6033333,131.503333 32.538,130.71 C31.4726667,129.916667 30.0786667,129.52 28.356,129.52 C26.6333333,129.52 25.2393333,129.916667 24.174,130.71 C23.1086667,131.503333 22.2813333,132.512 21.692,133.736 C21.1026667,134.96 20.706,136.303 20.502,137.765 C20.298,139.227 20.196,140.626667 20.196,141.964 C20.196,143.301333 20.298,144.701 20.502,146.163 C20.706,147.625 21.1026667,148.968 21.692,150.192 C22.2813333,151.416 23.1086667,152.424667 24.174,153.218 C25.2393333,154.011333 26.6333333,154.408 28.356,154.408 Z M28.356,152.164 C27.0413333,152.164 26.0043333,151.812667 25.245,151.11 C24.4856667,150.407333 23.9133333,149.534667 23.528,148.492 C23.1426667,147.449333 22.899,146.338667 22.797,145.16 C22.695,143.981333 22.644,142.916 22.644,141.964 C22.644,141.012 22.695,139.946667 22.797,138.768 C22.899,137.589333 23.1426667,136.478667 23.528,135.436 C23.9133333,134.393333 24.4856667,133.520667 25.245,132.818 C26.0043333,132.115333 27.0413333,131.764 28.356,131.764 C29.6706667,131.764 30.7076667,132.115333 31.467,132.818 C32.2263333,133.520667 32.7986667,134.393333 33.184,135.436 C33.5693333,136.478667 33.813,137.589333 33.915,138.768 C34.017,139.946667 34.068,141.012 34.068,141.964 C34.068,142.916 34.017,143.981333 33.915,145.16 C33.813,146.338667 33.5693333,147.449333 33.184,148.492 C32.7986667,149.534667 32.2263333,150.407333 31.467,151.11 C30.7076667,151.812667 29.6706667,152.164 28.356,152.164 Z M39.95,154.612 L50.218,129.996 L48.28,129.316 L37.978,153.966 L39.95,154.612 Z M67.32,154 L67.32,151.756 L54.672,151.756 L62.254,144.242 C62.866,143.652667 63.461,143.052 64.039,142.44 C64.617,141.828 65.1326667,141.182 65.586,140.502 C66.0393333,139.822 66.4076667,139.096667 66.691,138.326 C66.9743333,137.555333 67.116,136.705333 67.116,135.776 C67.116,134.733333 66.9176667,133.821 66.521,133.039 C66.1243333,132.257 65.5916667,131.605333 64.923,131.084 C64.2543333,130.562667 63.4836667,130.171667 62.611,129.911 C61.7383333,129.650333 60.8146667,129.52 59.84,129.52 C57.9813333,129.52 56.4003333,130.03 55.097,131.05 C53.7936667,132.07 52.972,133.475333 52.632,135.266 L52.632,135.266 L55.216,135.538 C55.4653333,134.382 56.0206667,133.464 56.882,132.784 C57.7433333,132.104 58.786,131.764 60.01,131.764 C60.6446667,131.764 61.2453333,131.860333 61.812,132.053 C62.3786667,132.245667 62.8773333,132.523333 63.308,132.886 C63.7386667,133.248667 64.073,133.690667 64.311,134.212 C64.549,134.733333 64.668,135.322667 64.668,135.98 C64.668,136.524 64.5773333,137.045333 64.396,137.544 C64.2146667,138.042667 63.9766667,138.518667 63.682,138.972 C63.3873333,139.425333 63.0586667,139.856 62.696,140.264 C62.3333333,140.672 61.9706667,141.057333 61.608,141.42 L61.608,141.42 L52.02,151.178 L52.02,154 L67.32,154 Z M77.996,154 L84.49,143.426 C85.0793333,142.451333 85.5723333,141.465333 85.969,140.468 C86.3656667,139.470667 86.564,138.303333 86.564,136.966 C86.564,135.855333 86.3713333,134.846667 85.986,133.94 C85.6006667,133.033333 85.0566667,132.251333 84.354,131.594 C83.6513333,130.936667 82.824,130.426667 81.872,130.064 C80.92,129.701333 79.8773333,129.52 78.744,129.52 C77.6106667,129.52 76.568,129.701333 75.616,130.064 C74.664,130.426667 73.8366667,130.936667 73.134,131.594 C72.4313333,132.251333 71.8873333,133.033333 71.502,133.94 C71.1166667,134.846667 70.924,135.855333 70.924,136.966 C70.924,138.054 71.111,139.051333 71.485,139.958 C71.859,140.864667 72.3746667,141.646667 73.032,142.304 C73.6893333,142.961333 74.4656667,143.477 75.361,143.851 C76.2563333,144.225 77.2253333,144.412 78.268,144.412 C78.812,144.412 79.407,144.344 80.053,144.208 C80.699,144.072 81.2146667,143.868 81.6,143.596 L81.6,143.596 L81.668,143.664 L75.106,154 L77.996,154 Z M78.744,142.168 C77.9506667,142.168 77.2253333,142.043333 76.568,141.794 C75.9106667,141.544667 75.344,141.187667 74.868,140.723 C74.392,140.258333 74.0236667,139.708667 73.763,139.074 C73.5023333,138.439333 73.372,137.736667 73.372,136.966 C73.372,136.195333 73.5023333,135.492667 73.763,134.858 C74.0236667,134.223333 74.392,133.679333 74.868,133.226 C75.344,132.772667 75.9106667,132.415667 76.568,132.155 C77.2253333,131.894333 77.9506667,131.764 78.744,131.764 C79.5373333,131.764 80.2626667,131.894333 80.92,132.155 C81.5773333,132.415667 82.144,132.772667 82.62,133.226 C83.096,133.679333 83.4643333,134.223333 83.725,134.858 C83.9856667,135.492667 84.116,136.195333 84.116,136.966 C84.116,137.736667 83.9856667,138.439333 83.725,139.074 C83.4643333,139.708667 83.096,140.258333 82.62,140.723 C82.144,141.187667 81.5773333,141.544667 80.92,141.794 C80.2626667,142.043333 79.5373333,142.168 78.744,142.168 Z M90.338,154.612 L100.606,129.996 L98.668,129.316 L88.366,153.966 L90.338,154.612 Z M117.708,154 L117.708,151.756 L105.06,151.756 L112.642,144.242 C113.254,143.652667 113.849,143.052 114.427,142.44 C115.005,141.828 115.520667,141.182 115.974,140.502 C116.427333,139.822 116.795667,139.096667 117.079,138.326 C117.362333,137.555333 117.504,136.705333 117.504,135.776 C117.504,134.733333 117.305667,133.821 116.909,133.039 C116.512333,132.257 115.979667,131.605333 115.311,131.084 C114.642333,130.562667 113.871667,130.171667 112.999,129.911 C112.126333,129.650333 111.202667,129.52 110.228,129.52 C108.369333,129.52 106.788333,130.03 105.485,131.05 C104.181667,132.07 103.36,133.475333 103.02,135.266 L103.02,135.266 L105.604,135.538 C105.853333,134.382 106.408667,133.464 107.27,132.784 C108.131333,132.104 109.174,131.764 110.398,131.764 C111.032667,131.764 111.633333,131.860333 112.2,132.053 C112.766667,132.245667 113.265333,132.523333 113.696,132.886 C114.126667,133.248667 114.461,133.690667 114.699,134.212 C114.937,134.733333 115.056,135.322667 115.056,135.98 C115.056,136.524 114.965333,137.045333 114.784,137.544 C114.602667,138.042667 114.364667,138.518667 114.07,138.972 C113.775333,139.425333 113.446667,139.856 113.084,140.264 C112.721333,140.672 112.358667,141.057333 111.996,141.42 L111.996,141.42 L102.408,151.178 L102.408,154 L117.708,154 Z M129.132,154.408 C130.854667,154.408 132.248667,154.011333 133.314,153.218 C134.379333,152.424667 135.206667,151.416 135.796,150.192 C136.385333,148.968 136.782,147.625 136.986,146.163 C137.19,144.701 137.292,143.301333 137.292,141.964 C137.292,140.626667 137.19,139.227 136.986,137.765 C136.782,136.303 136.385333,134.96 135.796,133.736 C135.206667,132.512 134.379333,131.503333 133.314,130.71 C132.248667,129.916667 130.854667,129.52 129.132,129.52 C127.409333,129.52 126.015333,129.916667 124.95,130.71 C123.884667,131.503333 123.057333,132.512 122.468,133.736 C121.878667,134.96 121.482,136.303 121.278,137.765 C121.074,139.227 120.972,140.626667 120.972,141.964 C120.972,143.301333 121.074,144.701 121.278,146.163 C121.482,147.625 121.878667,148.968 122.468,150.192 C123.057333,151.416 123.884667,152.424667 124.95,153.218 C126.015333,154.011333 127.409333,154.408 129.132,154.408 Z M129.132,152.164 C127.817333,152.164 126.780333,151.812667 126.021,151.11 C125.261667,150.407333 124.689333,149.534667 124.304,148.492 C123.918667,147.449333 123.675,146.338667 123.573,145.16 C123.471,143.981333 123.42,142.916 123.42,141.964 C123.42,141.012 123.471,139.946667 123.573,138.768 C123.675,137.589333 123.918667,136.478667 124.304,135.436 C124.689333,134.393333 125.261667,133.520667 126.021,132.818 C126.780333,132.115333 127.817333,131.764 129.132,131.764 C130.446667,131.764 131.483667,132.115333 132.243,132.818 C133.002333,133.520667 133.574667,134.393333 133.96,135.436 C134.345333,136.478667 134.589,137.589333 134.691,138.768 C134.793,139.946667 134.844,141.012 134.844,141.964 C134.844,142.916 134.793,143.981333 134.691,145.16 C134.589,146.338667 134.345333,147.449333 133.96,148.492 C133.574667,149.534667 133.002333,150.407333 132.243,151.11 C131.483667,151.812667 130.446667,152.164 129.132,152.164 Z M159.868,154 L159.868,129.928 L157.692,129.928 L151.572,134.96 L153.102,136.796 L157.42,132.988 L157.42,154 L159.868,154 Z M178.772,154 L178.772,129.928 L176.596,129.928 L170.476,134.96 L172.006,136.796 L176.324,132.988 L176.324,154 L178.772,154 Z M190.57,141.59 C191.114,141.59 191.556,141.403 191.896,141.029 C192.236,140.655 192.406,140.23 192.406,139.754 C192.406,139.278 192.236,138.853 191.896,138.479 C191.556,138.105 191.114,137.918 190.57,137.918 C190.026,137.918 189.584,138.105 189.244,138.479 C188.904,138.853 188.734,139.278 188.734,139.754 C188.734,140.23 188.904,140.655 189.244,141.029 C189.584,141.403 190.026,141.59 190.57,141.59 Z M190.57,154.204 C191.114,154.204 191.556,154.017 191.896,153.643 C192.236,153.269 192.406,152.844 192.406,152.368 C192.406,151.892 192.236,151.467 191.896,151.093 C191.556,150.719 191.114,150.532 190.57,150.532 C190.026,150.532 189.584,150.719 189.244,151.093 C188.904,151.467 188.734,151.892 188.734,152.368 C188.734,152.844 188.904,153.269 189.244,153.643 C189.584,154.017 190.026,154.204 190.57,154.204 Z M204.748,154.408 C206.470667,154.408 207.864667,154.011333 208.93,153.218 C209.995333,152.424667 210.822667,151.416 211.412,150.192 C212.001333,148.968 212.398,147.625 212.602,146.163 C212.806,144.701 212.908,143.301333 212.908,141.964 C212.908,140.626667 212.806,139.227 212.602,137.765 C212.398,136.303 212.001333,134.96 211.412,133.736 C210.822667,132.512 209.995333,131.503333 208.93,130.71 C207.864667,129.916667 206.470667,129.52 204.748,129.52 C203.025333,129.52 201.631333,129.916667 200.566,130.71 C199.500667,131.503333 198.673333,132.512 198.084,133.736 C197.494667,134.96 197.098,136.303 196.894,137.765 C196.69,139.227 196.588,140.626667 196.588,141.964 C196.588,143.301333 196.69,144.701 196.894,146.163 C197.098,147.625 197.494667,148.968 198.084,150.192 C198.673333,151.416 199.500667,152.424667 200.566,153.218 C201.631333,154.011333 203.025333,154.408 204.748,154.408 Z M204.748,152.164 C203.433333,152.164 202.396333,151.812667 201.637,151.11 C200.877667,150.407333 200.305333,149.534667 199.92,148.492 C199.534667,147.449333 199.291,146.338667 199.189,145.16 C199.087,143.981333 199.036,142.916 199.036,141.964 C199.036,141.012 199.087,139.946667 199.189,138.768 C199.291,137.589333 199.534667,136.478667 199.92,135.436 C200.305333,134.393333 200.877667,133.520667 201.637,132.818 C202.396333,132.115333 203.433333,131.764 204.748,131.764 C206.062667,131.764 207.099667,132.115333 207.859,132.818 C208.618333,133.520667 209.190667,134.393333 209.576,135.436 C209.961333,136.478667 210.205,137.589333 210.307,138.768 C210.409,139.946667 210.46,141.012 210.46,141.964 C210.46,142.916 210.409,143.981333 210.307,145.16 C210.205,146.338667 209.961333,147.449333 209.576,148.492 C209.190667,149.534667 208.618333,150.407333 207.859,151.11 C207.099667,151.812667 206.062667,152.164 204.748,152.164 Z M223.652,154.408 C225.374667,154.408 226.768667,154.011333 227.834,153.218 C228.899333,152.424667 229.726667,151.416 230.316,150.192 C230.905333,148.968 231.302,147.625 231.506,146.163 C231.71,144.701 231.812,143.301333 231.812,141.964 C231.812,140.626667 231.71,139.227 231.506,137.765 C231.302,136.303 230.905333,134.96 230.316,133.736 C229.726667,132.512 228.899333,131.503333 227.834,130.71 C226.768667,129.916667 225.374667,129.52 223.652,129.52 C221.929333,129.52 220.535333,129.916667 219.47,130.71 C218.404667,131.503333 217.577333,132.512 216.988,133.736 C216.398667,134.96 216.002,136.303 215.798,137.765 C215.594,139.227 215.492,140.626667 215.492,141.964 C215.492,143.301333 215.594,144.701 215.798,146.163 C216.002,147.625 216.398667,148.968 216.988,150.192 C217.577333,151.416 218.404667,152.424667 219.47,153.218 C220.535333,154.011333 221.929333,154.408 223.652,154.408 Z M223.652,152.164 C222.337333,152.164 221.300333,151.812667 220.541,151.11 C219.781667,150.407333 219.209333,149.534667 218.824,148.492 C218.438667,147.449333 218.195,146.338667 218.093,145.16 C217.991,143.981333 217.94,142.916 217.94,141.964 C217.94,141.012 217.991,139.946667 218.093,138.768 C218.195,137.589333 218.438667,136.478667 218.824,135.436 C219.209333,134.393333 219.781667,133.520667 220.541,132.818 C221.300333,132.115333 222.337333,131.764 223.652,131.764 C224.966667,131.764 226.003667,132.115333 226.763,132.818 C227.522333,133.520667 228.094667,134.393333 228.48,135.436 C228.865333,136.478667 229.109,137.589333 229.211,138.768 C229.313,139.946667 229.364,141.012 229.364,141.964 C229.364,142.916 229.313,143.981333 229.211,145.16 C229.109,146.338667 228.865333,147.449333 228.48,148.492 C228.094667,149.534667 227.522333,150.407333 226.763,151.11 C226.003667,151.812667 224.966667,152.164 223.652,152.164 Z M235.96,154 L238.612,147.676 L250.92,147.676 L253.572,154 L256.428,154 L245.956,129.928 L243.576,129.928 L233.104,154 L235.96,154 Z M249.968,145.432 L239.53,145.432 L244.766,132.784 L249.968,145.432 Z M262.14,154 L262.14,133.192 L262.208,133.192 L270.912,154 L272.204,154 L280.908,133.192 L280.976,133.192 L280.976,154 L283.424,154 L283.424,129.928 L279.684,129.928 L271.558,149.512 L263.432,129.928 L259.692,129.928 L259.692,154 L262.14,154 Z M306.17,146.962 L306.17,144.718 L297.432,144.718 L297.432,146.962 L306.17,146.962 Z M328.746,154 L328.746,129.928 L326.57,129.928 L320.45,134.96 L321.98,136.796 L326.298,132.988 L326.298,154 L328.746,154 Z M352.75,154 L352.75,151.756 L340.102,151.756 L347.684,144.242 C348.296,143.652667 348.891,143.052 349.469,142.44 C350.047,141.828 350.562667,141.182 351.016,140.502 C351.469333,139.822 351.837667,139.096667 352.121,138.326 C352.404333,137.555333 352.546,136.705333 352.546,135.776 C352.546,134.733333 352.347667,133.821 351.951,133.039 C351.554333,132.257 351.021667,131.605333 350.353,131.084 C349.684333,130.562667 348.913667,130.171667 348.041,129.911 C347.168333,129.650333 346.244667,129.52 345.27,129.52 C343.411333,129.52 341.830333,130.03 340.527,131.05 C339.223667,132.07 338.402,133.475333 338.062,135.266 L338.062,135.266 L340.646,135.538 C340.895333,134.382 341.450667,133.464 342.312,132.784 C343.173333,132.104 344.216,131.764 345.44,131.764 C346.074667,131.764 346.675333,131.860333 347.242,132.053 C347.808667,132.245667 348.307333,132.523333 348.738,132.886 C349.168667,133.248667 349.503,133.690667 349.741,134.212 C349.979,134.733333 350.098,135.322667 350.098,135.98 C350.098,136.524 350.007333,137.045333 349.826,137.544 C349.644667,138.042667 349.406667,138.518667 349.112,138.972 C348.817333,139.425333 348.488667,139.856 348.126,140.264 C347.763333,140.672 347.400667,141.057333 347.038,141.42 L347.038,141.42 L337.45,151.178 L337.45,154 L352.75,154 Z M359.448,141.59 C359.992,141.59 360.434,141.403 360.774,141.029 C361.114,140.655 361.284,140.23 361.284,139.754 C361.284,139.278 361.114,138.853 360.774,138.479 C360.434,138.105 359.992,137.918 359.448,137.918 C358.904,137.918 358.462,138.105 358.122,138.479 C357.782,138.853 357.612,139.278 357.612,139.754 C357.612,140.23 357.782,140.655 358.122,141.029 C358.462,141.403 358.904,141.59 359.448,141.59 Z M359.448,154.204 C359.992,154.204 360.434,154.017 360.774,153.643 C361.114,153.269 361.284,152.844 361.284,152.368 C361.284,151.892 361.114,151.467 360.774,151.093 C360.434,150.719 359.992,150.532 359.448,150.532 C358.904,150.532 358.462,150.719 358.122,151.093 C357.782,151.467 357.612,151.892 357.612,152.368 C357.612,152.844 357.782,153.269 358.122,153.643 C358.462,154.017 358.904,154.204 359.448,154.204 Z M373.048,154.408 C374.090667,154.408 375.076667,154.255 376.006,153.949 C376.935333,153.643 377.751333,153.195333 378.454,152.606 C379.156667,152.016667 379.712,151.291333 380.12,150.43 C380.528,149.568667 380.732,148.582667 380.732,147.472 C380.732,146.724 380.618667,146.01 380.392,145.33 C380.165333,144.65 379.848,144.038 379.44,143.494 C379.032,142.95 378.544667,142.491 377.978,142.117 C377.411333,141.743 376.788,141.488 376.108,141.352 L376.108,141.352 L376.006,141.284 C376.55,141.102667 377.071333,140.836333 377.57,140.485 C378.068667,140.133667 378.505,139.72 378.879,139.244 C379.253,138.768 379.547667,138.235333 379.763,137.646 C379.978333,137.056667 380.086,136.433333 380.086,135.776 C380.086,134.778667 379.899,133.889 379.525,133.107 C379.151,132.325 378.646667,131.667667 378.012,131.135 C377.377333,130.602333 376.640667,130.2 375.802,129.928 C374.963333,129.656 374.068,129.52 373.116,129.52 C371.642667,129.52 370.345,129.831667 369.223,130.455 C368.101,131.078333 367.177333,132.036 366.452,133.328 L366.452,133.328 L368.594,134.416 C369.092667,133.554667 369.727333,132.897333 370.498,132.444 C371.268667,131.990667 372.164,131.764 373.184,131.764 C374.589333,131.764 375.683,132.121 376.465,132.835 C377.247,133.549 377.638,134.552 377.638,135.844 C377.638,136.637333 377.496333,137.317333 377.213,137.884 C376.929667,138.450667 376.55,138.909667 376.074,139.261 C375.598,139.612333 375.037,139.867333 374.391,140.026 C373.745,140.184667 373.070667,140.264 372.368,140.264 L372.368,140.264 L371.11,140.264 L371.11,142.508 L372.164,142.508 C372.957333,142.508 373.722333,142.593 374.459,142.763 C375.195667,142.933 375.847333,143.210667 376.414,143.596 C376.980667,143.981333 377.434,144.485667 377.774,145.109 C378.114,145.732333 378.284,146.497333 378.284,147.404 C378.284,148.106667 378.153667,148.752667 377.893,149.342 C377.632333,149.931333 377.269667,150.435667 376.805,150.855 C376.340333,151.274333 375.802,151.597333 375.19,151.824 C374.578,152.050667 373.932,152.164 373.252,152.164 C371.801333,152.164 370.673667,151.886333 369.869,151.331 C369.064333,150.775667 368.458,149.92 368.05,148.764 L368.05,148.764 L365.466,149.546 C366.123333,151.246 367.109333,152.481333 368.424,153.252 C369.738667,154.022667 371.28,154.408 373.048,154.408 Z M392.53,154.408 C394.252667,154.408 395.646667,154.011333 396.712,153.218 C397.777333,152.424667 398.604667,151.416 399.194,150.192 C399.783333,148.968 400.18,147.625 400.384,146.163 C400.588,144.701 400.69,143.301333 400.69,141.964 C400.69,140.626667 400.588,139.227 400.384,137.765 C400.18,136.303 399.783333,134.96 399.194,133.736 C398.604667,132.512 397.777333,131.503333 396.712,130.71 C395.646667,129.916667 394.252667,129.52 392.53,129.52 C390.807333,129.52 389.413333,129.916667 388.348,130.71 C387.282667,131.503333 386.455333,132.512 385.866,133.736 C385.276667,134.96 384.88,136.303 384.676,137.765 C384.472,139.227 384.37,140.626667 384.37,141.964 C384.37,143.301333 384.472,144.701 384.676,146.163 C384.88,147.625 385.276667,148.968 385.866,150.192 C386.455333,151.416 387.282667,152.424667 388.348,153.218 C389.413333,154.011333 390.807333,154.408 392.53,154.408 Z M392.53,152.164 C391.215333,152.164 390.178333,151.812667 389.419,151.11 C388.659667,150.407333 388.087333,149.534667 387.702,148.492 C387.316667,147.449333 387.073,146.338667 386.971,145.16 C386.869,143.981333 386.818,142.916 386.818,141.964 C386.818,141.012 386.869,139.946667 386.971,138.768 C387.073,137.589333 387.316667,136.478667 387.702,135.436 C388.087333,134.393333 388.659667,133.520667 389.419,132.818 C390.178333,132.115333 391.215333,131.764 392.53,131.764 C393.844667,131.764 394.881667,132.115333 395.641,132.818 C396.400333,133.520667 396.972667,134.393333 397.358,135.436 C397.743333,136.478667 397.987,137.589333 398.089,138.768 C398.191,139.946667 398.242,141.012 398.242,141.964 C398.242,142.916 398.191,143.981333 398.089,145.16 C397.987,146.338667 397.743333,147.449333 397.358,148.492 C396.972667,149.534667 396.400333,150.407333 395.641,151.11 C394.881667,151.812667 393.844667,152.164 392.53,152.164 Z M407.694,154 L407.694,142.814 L412.25,142.814 C414.698,142.814 416.630333,142.275667 418.047,141.199 C419.463667,140.122333 420.172,138.507333 420.172,136.354 C420.172,134.200667 419.463667,132.591333 418.047,131.526 C416.630333,130.460667 414.698,129.928 412.25,129.928 L412.25,129.928 L405.246,129.928 L405.246,154 L407.694,154 Z M411.638,140.57 L407.694,140.57 L407.694,132.172 L411.638,132.172 C412.726,132.172 413.649667,132.279667 414.409,132.495 C415.168333,132.710333 415.774667,133.010667 416.228,133.396 C416.681333,133.781333 417.01,134.229 417.214,134.739 C417.418,135.249 417.52,135.787333 417.52,136.354 C417.52,136.943333 417.418,137.493 417.214,138.003 C417.01,138.513 416.681333,138.955 416.228,139.329 C415.774667,139.703 415.168333,140.003333 414.409,140.23 C413.649667,140.456667 412.726,140.57 411.638,140.57 L411.638,140.57 Z M427.21,154 L427.21,133.192 L427.278,133.192 L435.982,154 L437.274,154 L445.978,133.192 L446.046,133.192 L446.046,154 L448.494,154 L448.494,129.928 L444.754,129.928 L436.628,149.512 L428.502,129.928 L424.762,129.928 L424.762,154 L427.21,154 Z M466.922,154 L466.922,142.814 L471.478,142.814 C473.926,142.814 475.858333,142.275667 477.275,141.199 C478.691667,140.122333 479.4,138.507333 479.4,136.354 C479.4,134.200667 478.691667,132.591333 477.275,131.526 C475.858333,130.460667 473.926,129.928 471.478,129.928 L471.478,129.928 L464.474,129.928 L464.474,154 L466.922,154 Z M470.866,140.57 L466.922,140.57 L466.922,132.172 L470.866,132.172 C471.954,132.172 472.877667,132.279667 473.637,132.495 C474.396333,132.710333 475.002667,133.010667 475.456,133.396 C475.909333,133.781333 476.238,134.229 476.442,134.739 C476.646,135.249 476.748,135.787333 476.748,136.354 C476.748,136.943333 476.646,137.493 476.442,138.003 C476.238,138.513 475.909333,138.955 475.456,139.329 C475.002667,139.703 474.396333,140.003333 473.637,140.23 C472.877667,140.456667 471.954,140.57 470.866,140.57 L470.866,140.57 Z M491.64,154 C493.136,154 494.637667,153.750667 496.145,153.252 C497.652333,152.753333 499.012333,151.999667 500.225,150.991 C501.437667,149.982333 502.418,148.73 503.166,147.234 C503.914,145.738 504.288,143.981333 504.288,141.964 C504.288,139.969333 503.914,138.218333 503.166,136.711 C502.418,135.203667 501.437667,133.945667 500.225,132.937 C499.012333,131.928333 497.652333,131.174667 496.145,130.676 C494.637667,130.177333 493.136,129.928 491.64,129.928 L491.64,129.928 L483.65,129.928 L483.65,154 L491.64,154 Z M490.858,151.756 L486.098,151.756 L486.098,132.172 L490.858,132.172 C492.694,132.172 494.286333,132.449667 495.635,133.005 C496.983667,133.560333 498.105667,134.297 499.001,135.215 C499.896333,136.133 500.559333,137.175667 500.99,138.343 C501.420667,139.510333 501.636,140.717333 501.636,141.964 C501.636,143.210667 501.420667,144.417667 500.99,145.585 C500.559333,146.752333 499.896333,147.795 499.001,148.713 C498.105667,149.631 496.983667,150.367667 495.635,150.923 C494.286333,151.478333 492.694,151.756 490.858,151.756 L490.858,151.756 Z M516.902,154 L516.902,132.172 L524.96,132.172 L524.96,129.928 L506.396,129.928 L506.396,132.172 L514.454,132.172 L514.454,154 L516.902,154 Z" id="10/29/2011:00AM-12:30PMPDT" fill="#FFFFFF" fill-rule="nonzero"></path>
        </g>
    </g>
</svg>
