<svg xmlns="http://www.w3.org/2000/svg" viewBox="0 0 400 400"><defs><style>.cls-1{fill:#fff;}</style></defs><g id="Layer_2" data-name="Layer 2"><g id="Logo_FIXED" data-name="Logo — FIXED"><circle cx="200" cy="200" r="200"/><path class="cls-1" d="M136.42,229A23.09,23.09,0,1,1,113.34,206h23.08Z"/><path class="cls-1" d="M148,229a23.09,23.09,0,0,1,46.17,0v57.72a23.09,23.09,0,1,1-46.17,0Z"/><path class="cls-1" d="M171.05,136.34a23.09,23.09,0,1,1,23.09-23.09v23.09Z"/><path class="cls-1" d="M171.05,148.05a23.09,23.09,0,0,1,0,46.18H113.16a23.09,23.09,0,0,1,0-46.18Z"/><path class="cls-1" d="M263.58,171.14a23.09,23.09,0,1,1,23.08,23.09H263.58Z"/><path class="cls-1" d="M252,171.14a23.09,23.09,0,1,1-46.17,0V113.25a23.09,23.09,0,1,1,46.17,0Z"/><path class="cls-1" d="M229,263.66a23.09,23.09,0,1,1-23.09,23.09V263.66Z"/><path class="cls-1" d="M229,252.12A23.09,23.09,0,1,1,229,206h57.89a23.09,23.09,0,1,1,0,46.17Z"/></g></g></svg>