<svg xmlns="http://www.w3.org/2000/svg" viewBox="0 0 219.85 219.68"><g id="Layer_2" data-name="Layer 2"><g id="Logo_FIXED" data-name="Logo — FIXED"><path d="M46.35,138.87a23.09,23.09,0,1,1-23.09-23.09H46.35Z"/><path d="M57.89,138.87a23.09,23.09,0,1,1,46.18,0v57.72a23.09,23.09,0,1,1-46.18,0Z"/><path d="M81,46.17a23.09,23.09,0,1,1,23.09-23.08V46.17Z"/><path d="M81,57.89a23.09,23.09,0,0,1,0,46.18H23.09a23.09,23.09,0,0,1,0-46.18Z"/><path d="M173.5,81a23.09,23.09,0,1,1,23.09,23.09H173.5Z"/><path d="M162,81a23.09,23.09,0,0,1-46.18,0V23.09a23.09,23.09,0,0,1,46.18,0Z"/><path d="M138.87,173.5a23.09,23.09,0,1,1-23.09,23.09V173.5Z"/><path d="M138.87,162a23.09,23.09,0,0,1,0-46.18h57.89a23.09,23.09,0,0,1,0,46.18Z"/></g></g></svg>