<svg xmlns="http://www.w3.org/2000/svg" viewBox="0 0 400 400"><defs><style>.cls-1{fill:#fff;}</style></defs><g id="Layer_2" data-name="Layer 2"><g id="Logo_FIXED" data-name="Logo — FIXED"><circle cx="200" cy="200" r="200"/><path class="cls-1" d="M163.41,305.49c88.68,0,137.18-73.47,137.18-137.18q0-3.12-.14-6.23a98.24,98.24,0,0,0,24.05-25,96.64,96.64,0,0,1-27.69,7.59A48.37,48.37,0,0,0,318,118a96.63,96.63,0,0,1-30.61,11.7,48.24,48.24,0,0,0-82.16,44,136.86,136.86,0,0,1-99.38-50.37,48.25,48.25,0,0,0,14.92,64.36,47.77,47.77,0,0,1-21.84-6c0,.2,0,.4,0,.62a48.24,48.24,0,0,0,38.69,47.26,48.09,48.09,0,0,1-21.78.83,48.29,48.29,0,0,0,45,33.49A96.74,96.74,0,0,1,101,284.5a99.21,99.21,0,0,1-11.5-.66,136.53,136.53,0,0,0,73.91,21.65"/></g></g></svg>