<svg xmlns="http://www.w3.org/2000/svg" viewBox="0 0 235 190.99"><g id="Layer_2" data-name="Layer 2"><g id="Logo_FIXED" data-name="Logo — FIXED"><path d="M73.91,191c88.68,0,137.18-73.47,137.18-137.18q0-3.14-.14-6.24a98.07,98.07,0,0,0,24.05-25,96.32,96.32,0,0,1-27.69,7.59,48.33,48.33,0,0,0,21.2-26.67,96.63,96.63,0,0,1-30.61,11.7,48.24,48.24,0,0,0-82.16,44A136.86,136.86,0,0,1,16.36,8.83,48.26,48.26,0,0,0,31.28,73.2a47.9,47.9,0,0,1-21.84-6c0,.21,0,.41,0,.62a48.25,48.25,0,0,0,38.69,47.27,48.25,48.25,0,0,1-21.78.82,48.27,48.27,0,0,0,45,33.49A96.75,96.75,0,0,1,11.5,170,97,97,0,0,1,0,169.33,136.53,136.53,0,0,0,73.91,191"/></g></g></svg>